<?xml version="1.0" encoding="utf-8" ?>
<svg xmlns="http://www.w3.org/2000/svg" xmlns:xlink="http://www.w3.org/1999/xlink" width="1024" height="1024">
	<path fill="#FEFEFE" d="M0 0L1024 0L1024 1024L0 1024L0 0ZM326.414 435.945C326.579 431.372 326.735 426.82 326.638 422.243C339.461 422.632 351.513 423.912 364.08 426.528C353.012 419.945 339.198 419.233 326.614 418.914C326.294 415.917 325.939 412.922 325.771 409.912C340.105 402.965 354.305 401.869 369.715 399.538C354.026 396.603 339.674 398.993 325.229 405.67C320.032 378.862 310.351 352.848 287.063 336.466C289.423 332.432 290.38 328.841 289.195 324.188C287.8 318.71 283.521 313.367 278.683 310.51C274.924 308.29 270.43 307.506 266.177 308.606C261.833 309.73 258.635 312.427 255.986 315.939C237.847 310.336 220.86 310.003 202.494 314.691C207.49 305.87 219.451 294.305 226.825 286.965C199.695 293.018 175.038 304.643 154.088 323.054C148.436 328.02 143.368 333.505 137.965 338.722C129.285 333.715 121.853 329.624 111.483 332.318C104.756 334.066 99.2922 338.477 95.9399 344.541C92.5389 350.693 91.451 358.142 93.4178 364.934C95.5634 372.344 101.136 378.998 107.99 382.517C109.697 383.393 111.567 384.049 113.359 384.735C111.252 391.998 109.05 399.269 107.374 406.645C92.4075 472.475 79.3715 600.182 92.2245 665.71C94.4026 676.814 98.5078 686.093 102.592 696.478C97.7478 698.84 92.4635 701.748 90.6984 707.236C89.7375 710.224 89.8955 713.373 91.3369 716.178C95.276 723.844 106.754 727.638 114.462 729.854C148.104 739.526 189.788 739.958 224.311 735.699Q232.803 734.667 241.174 732.906C244.716 732.133 248.499 730.705 252.088 730.439C258.043 729.996 264.289 731.118 270.27 731.352C283.997 731.888 304.193 730.599 316.578 724.091C319.61 722.498 322.827 719.976 323.666 716.478C324.489 713.049 322.841 709.487 320.939 706.723C317.266 701.387 311.692 697.82 305.724 695.563C315.2 683.913 320.922 672.296 324.423 657.713C335.047 654.736 355.658 651.382 361.383 641.187C364.607 635.445 363.532 629.497 361.727 623.536C355.804 603.986 348.312 584.833 341.973 565.402C345.406 556.83 347.86 547.658 344.156 538.681C340.904 530.8 334.008 526.031 326.738 522.216C324.349 513.587 314.989 487.758 310.432 480.347C316.679 471.09 320.948 461.578 323.522 450.7C324.424 446.884 324.85 441.842 326.395 438.334C334.691 441.384 342.665 444.067 350.657 447.908C343.156 441.815 335.683 438.558 326.414 435.945ZM397.845 432.212C383.357 433.274 371.813 438.699 362.257 449.802C349.838 464.232 346.239 483.656 347.795 502.203C349.182 518.732 354.4 533.01 367.439 543.843C378.541 553.067 391.142 557.112 405.565 555.61C415.819 554.543 425.864 549.97 432.341 541.744C433.823 539.863 435.391 537.6 436.013 535.274C437.551 529.525 436.376 501.8 435.511 495.016C435.216 492.701 434.856 489.399 433.15 487.714C428.963 486.269 423.316 486.948 418.882 487.025C413.564 486.951 403.671 485.672 399.483 489.389C397.729 490.946 397.062 493.563 397.038 495.823C397.004 499.072 398.135 502.596 400.468 504.923C402.793 507.243 405.53 507.487 408.671 507.375L417.418 507.048C417.54 513.983 418.149 521.008 418.005 527.927C409.501 531.771 400.323 534.357 391.166 530.895C384.72 528.458 380.178 523.21 377.479 517.008C371.955 504.309 371.466 485.099 376.613 472.192C379.305 465.442 384.206 459.44 391.028 456.57C396.58 454.234 403.719 454.163 409.259 456.572C413.332 458.344 416.033 461.215 418.874 464.485C424.854 462.191 428.739 459.279 431.406 453.196C432.417 450.889 432.721 448.266 431.654 445.917C429.072 440.23 419.972 436.568 414.361 434.729C409.141 433.019 403.352 431.953 397.845 432.212ZM684.921 433.75C682.732 433.782 680.504 433.606 678.458 434.473C678.137 434.816 677.743 435.104 677.496 435.503C675.988 437.946 677.619 468.816 677.785 473.645Q678.431 498.775 678.209 523.913C678.108 532.117 677.443 540.438 677.714 548.632C677.766 550.19 677.693 551.884 678.614 553.204C681.611 555.415 685.584 555.262 689.121 554.673C691.507 554.275 694.05 553.647 695.444 551.495C696.26 550.235 696.586 548.736 696.706 547.259C697.288 540.083 696.711 532.386 696.767 525.154C696.891 508.979 697.21 492.737 696.513 476.573C700.894 484.491 710.314 504.136 715.244 509.81C716.178 510.885 717.383 511.87 718.82 512.14C720.375 512.432 721.772 511.779 722.946 510.822C727.517 507.095 738.391 483.885 741.536 477.41Q741.286 487.829 741.149 498.25L741.034 529.575C741.006 535.218 740.478 541.456 741.245 547.035C741.51 548.97 741.963 551.211 743.219 552.766C744.856 554.792 748.612 555.195 750.998 555.187C753.951 555.178 756.951 554.766 759.839 554.184C759.967 534.174 759.412 514.143 759.739 494.143C760.037 475.96 761.197 457.795 761.015 439.602C761.003 438.4 761.27 435.992 760.331 435.176C757.674 432.868 751.646 433.16 748.274 433.682C745.128 434.169 743.777 435.902 742.063 438.413C738.872 443.087 736.244 448.308 733.463 453.235L719.912 477.228C717.114 470.54 712.905 464.348 709.374 458.01C705.534 451.116 701.989 443.343 697.401 436.948C696.552 435.765 695.793 434.72 694.383 434.166C691.665 433.099 687.81 433.638 684.921 433.75ZM533.373 439.408C527.433 442.198 522.374 445.89 520.071 452.334C518.965 455.431 518.522 462.879 515.921 464.609C512.762 464.556 511.593 464.971 509.28 467.292C508.441 468.134 507.715 469.068 507.003 470.016C506.894 474.358 507.235 478.657 507.762 482.966L517.675 483.031C518.335 494.254 517.961 505.663 517.982 516.914C517.995 523.743 517.542 531.179 519.168 537.842C520.163 541.917 521.956 545.734 525.142 548.557C528.402 551.446 531.936 552.453 536.169 552.979C540.178 552.738 546.107 553.025 548.962 549.623C551.62 546.456 550.405 541.017 549.905 537.283C549.72 535.905 549.512 534.555 549.211 533.196C545.977 533.319 540.958 534.147 538.261 531.891C536.07 530.058 536.467 525.776 536.43 523.151C536.24 509.794 536.318 496.348 536.535 482.99C540.324 482.958 544.214 483.1 547.983 482.742Q548.342 473.973 547.95 465.206L536.514 464.944C536.332 460.242 537.305 442.561 535.722 439.707C534.922 439.566 534.186 439.448 533.373 439.408ZM847.044 440.714C845.397 441.042 844.832 441.242 843.83 442.635C839.522 448.632 838.037 457.843 836.841 464.988C834.185 464.866 831.438 464.59 828.785 464.772C827.042 469.024 823.598 477.272 825.697 481.743C826.048 482.491 826.433 482.724 827.23 482.964C829.654 483.693 833.735 483.143 836.294 483.093L836.391 514.614C836.404 522.003 835.674 530.049 837.344 537.286C838.334 541.577 840.272 545.65 843.444 548.758C849.816 555.003 857.856 554.796 866.125 554.533C867.725 554.411 868.11 554.482 869.437 553.495C871.975 548.153 870.183 538.942 868.912 533.348C865.548 533.692 860.573 534.841 857.619 532.669C854.955 530.71 854.545 525.364 854.417 522.352C853.873 509.485 854.936 496.553 854.04 483.689L865.935 483.452C868.011 479.996 871.557 473.079 870.791 469.036C870.535 467.684 869.888 466.763 868.738 466.039C865.239 463.836 858.568 464.984 854.549 464.69L854.343 440.835L847.044 440.714ZM641.248 463.11C631.805 464.943 624.149 469.518 618.754 477.617C611.695 488.213 610.442 501.852 613.066 514.097C614.366 520.162 616.865 525.075 620.627 529.983C620.097 533.741 619.049 538.146 621.464 541.483C622.687 543.172 624.564 543.957 626.577 544.234C634.613 545.34 646.383 541.916 652.271 549.734C654.225 552.329 655.174 556.031 654.679 559.246C654.328 561.522 653.258 563.525 651.363 564.875C647.545 567.592 641.56 568.044 637.096 567.139C632.474 566.201 628.96 564.108 625.015 561.706C619.7 565.299 616.23 569.573 614.098 575.685C617.66 579.705 621.314 582.64 626.262 584.832C636.037 588.435 646.971 588.837 656.573 584.353Q657.179 584.076 657.771 583.769Q658.363 583.462 658.939 583.125Q659.514 582.789 660.073 582.425Q660.631 582.06 661.17 581.669Q661.71 581.277 662.229 580.859Q662.748 580.441 663.246 579.997Q663.744 579.554 664.219 579.086Q664.694 578.619 665.146 578.128Q665.597 577.637 666.023 577.125Q666.45 576.612 666.85 576.079Q667.25 575.546 667.623 574.993Q667.997 574.441 668.342 573.871Q668.687 573.3 669.004 572.713Q669.32 572.127 669.607 571.525Q669.894 570.923 670.151 570.308Q670.407 569.692 670.633 569.065C673.081 562.235 672.833 554.078 669.716 547.494C666.833 541.406 660.639 536.063 654.241 533.87C653.058 533.464 651.833 533.194 650.61 532.942C659.511 528.245 666.371 522.078 669.471 512.215C672.115 503.804 671.864 493.637 667.723 485.762C666.245 482.952 664.21 480.485 662.082 478.145L668.471 469.994C659.479 464.548 651.761 462.39 641.248 463.11ZM473.278 463.679C463.988 464.634 456.789 468.027 450.795 475.294C441.449 486.626 438.538 501.947 440.003 516.277C441.247 528.444 445.674 539.985 455.381 547.915C461.666 553.049 469.067 555.261 477.121 554.855C486.536 553.844 494.439 549.758 500.463 542.354C509.261 531.54 511.442 515.49 509.975 502.01C508.684 490.145 504.162 478.499 494.653 470.812Q494.097 470.354 493.52 469.922Q492.944 469.49 492.348 469.085Q491.753 468.68 491.139 468.303Q490.525 467.925 489.895 467.577Q489.265 467.228 488.619 466.908Q487.974 466.589 487.314 466.299Q486.655 466.009 485.982 465.75Q485.31 465.491 484.627 465.263Q483.944 465.035 483.251 464.839Q482.558 464.642 481.856 464.478Q481.155 464.313 480.447 464.181Q479.739 464.049 479.025 463.949Q478.312 463.85 477.595 463.783Q476.877 463.716 476.158 463.682Q475.438 463.648 474.718 463.648Q473.998 463.647 473.278 463.679ZM573.361 464.139C566.199 465.352 560.499 467.178 555.202 472.479C556.139 478.574 557.746 485.007 560.206 490.678C565.581 485.704 571.46 482.117 579.103 482.378C582.927 482.508 586.433 483.846 588.972 486.767C589.337 487.187 589.684 487.622 590.02 488.065C590.527 490.736 590.977 493.313 591.131 496.033C580.499 495.943 566.911 494.347 558.663 502.45C553.26 507.757 550.962 515.186 551.047 522.613C551.122 529.141 552.9 535.986 556.727 541.338C561.677 548.005 568.173 552.071 576.436 553.249C585.206 554.499 594.821 552.606 601.975 547.231C605.008 544.953 607.153 542.381 608.941 539.044C608.963 525.848 610.388 495.466 607.46 484.018C606.236 479.23 603.969 474.71 600.51 471.139C595.01 465.46 587.973 463.783 580.345 463.799C578.01 463.804 575.687 463.959 573.361 464.139ZM903.81 464.202C894.394 464.98 887.394 469.087 881.36 476.251C872.118 487.222 869.021 500.9 870.32 515.004C871.445 527.22 876.312 539.776 886.036 547.679C892.568 552.988 901.08 555.937 909.528 555.071C918.336 554.167 925.363 549.099 930.617 542.25Q931.193 541.496 931.722 540.709L928.306 535.735C926.793 533.691 924.372 529.435 921.807 528.776C919.923 528.292 905.74 544.694 894.45 530.915C891.355 527.138 889.495 522.416 888.636 517.648C904.113 517.744 919.532 517.944 935.013 517.631C934.612 501.705 933.693 482.543 921.394 470.739C916.683 466.218 910.708 464.073 904.227 464.19C904.088 464.192 903.949 464.198 903.81 464.202ZM789.68 464.606C782.459 466.021 775.559 468.725 771.024 474.88C770.978 480.029 770.329 487.201 772.909 491.807L773.701 492.308C775.638 491.492 777.154 489.962 778.867 488.769C784.439 484.889 791.857 482.095 798.508 484.815C801.374 485.986 803.406 488.03 804.481 490.936C805.475 493.62 805.676 496.819 805.195 499.627C799.53 503.436 785.77 495.15 772.802 508.601C769.553 511.972 767.283 516.054 766.392 520.665C764.993 527.908 766.567 535.08 770.048 541.488C775.134 548.608 781.003 553.416 789.942 554.843C799.16 556.314 810.671 555.176 818.389 549.557C820.139 548.283 821.508 546.815 822.875 545.151Q823.026 529.76 823.001 514.368C823.006 506.983 823.468 499.286 822.217 491.994C821.021 485.023 818.519 477.404 813.536 472.209C808.656 467.12 801.749 464.478 794.764 464.378C793.069 464.354 791.37 464.48 789.68 464.606Z"/>
	<path fill="#17415B" d="M326.638 422.243C326.735 426.82 326.579 431.372 326.414 435.945L326.395 438.334C324.85 441.842 324.424 446.884 323.522 450.7C320.948 461.578 316.679 471.09 310.432 480.347C314.989 487.758 324.349 513.587 326.738 522.216C334.008 526.031 340.904 530.8 344.156 538.681C347.86 547.658 345.406 556.83 341.973 565.402C348.312 584.833 355.804 603.986 361.727 623.536C363.532 629.497 364.607 635.445 361.383 641.187C355.658 651.382 335.047 654.736 324.423 657.713C320.922 672.296 315.2 683.913 305.724 695.563C311.692 697.82 317.266 701.387 320.939 706.723C322.841 709.487 324.489 713.049 323.666 716.478C322.827 719.976 319.61 722.498 316.578 724.091C304.193 730.599 283.997 731.888 270.27 731.352C264.289 731.118 258.043 729.996 252.088 730.439C248.499 730.705 244.716 732.133 241.174 732.906Q232.803 734.667 224.311 735.699C189.788 739.958 148.104 739.526 114.462 729.854C106.754 727.638 95.276 723.844 91.3369 716.178C89.8955 713.373 89.7375 710.224 90.6984 707.236C92.4635 701.748 97.7478 698.84 102.592 696.478C98.5078 686.093 94.4026 676.814 92.2245 665.71C79.3715 600.182 92.4075 472.475 107.374 406.645C109.05 399.269 111.252 391.998 113.359 384.735C111.567 384.049 109.697 383.393 107.99 382.517C101.136 378.998 95.5634 372.344 93.4178 364.934C91.451 358.142 92.5389 350.693 95.9399 344.541C99.2922 338.477 104.756 334.066 111.483 332.318C121.853 329.624 129.285 333.715 137.965 338.722C143.368 333.505 148.436 328.02 154.088 323.054C175.038 304.643 199.695 293.018 226.825 286.965C219.451 294.305 207.49 305.87 202.494 314.691C220.86 310.003 237.847 310.336 255.986 315.939C258.635 312.427 261.833 309.73 266.177 308.606C270.43 307.506 274.924 308.29 278.683 310.51C283.521 313.367 287.8 318.71 289.195 324.188C290.38 328.841 289.423 332.432 287.063 336.466C310.351 352.848 320.032 378.862 325.229 405.67C339.674 398.993 354.026 396.603 369.715 399.538C354.305 401.869 340.105 402.965 325.771 409.912C325.939 412.922 326.294 415.917 326.614 418.914C339.198 419.233 353.012 419.945 364.08 426.528C351.513 423.912 339.461 422.632 326.638 422.243ZM263.839 385.128C262.718 376.07 263.826 366.674 269.475 359.179C272.391 355.31 276.457 352.504 281.351 351.988C285.567 351.544 288.968 352.775 292.686 354.542C274.96 336.235 256.212 321.374 229.646 320.93C211.795 320.631 195.579 325.324 178.761 330.664C184.069 320.311 191.14 311.295 200.238 304.024C189.592 308.832 176.902 318.122 167.839 325.634C159.906 332.209 149.465 344.705 141.997 349.284C140.397 350.265 138.522 350.732 136.73 351.236C136.532 351.161 136.332 351.089 136.135 351.011C128.178 347.885 122.093 339.782 112.666 343.709C109.023 345.227 106.461 348.382 105.122 352.034C103.476 356.522 103.904 361.385 106.066 365.622C107.824 369.067 110.672 371.975 114.451 373.082C118.078 374.144 121.677 373.359 124.845 371.393C127.182 369.943 129.28 367.599 131.209 365.642C131.018 365.663 130.828 365.686 130.638 365.705Q130.131 365.758 129.622 365.786Q129.113 365.815 128.603 365.818Q128.093 365.821 127.584 365.799Q127.075 365.777 126.567 365.729Q126.059 365.682 125.555 365.61Q125.05 365.538 124.55 365.441Q124.049 365.344 123.554 365.222Q123.059 365.101 122.57 364.955Q122.082 364.809 121.601 364.639Q121.12 364.469 120.649 364.276Q120.177 364.083 119.715 363.867Q119.254 363.65 118.803 363.411Q118.353 363.173 117.915 362.912Q117.477 362.651 117.052 362.369Q116.627 362.087 116.217 361.784Q115.807 361.482 115.412 361.159C113.654 359.702 111.998 358.172 110.955 356.122L111.216 355.312C115.342 353.84 130.291 361.828 139.005 360.814L139.75 361.273L137.898 362.476C138.074 362.732 138.274 362.974 138.428 363.245C138.534 363.432 138.592 363.643 138.673 363.842C131.782 372.414 127.816 378.44 123.988 389.027C118.637 403.831 116.051 419.692 113.38 435.156Q110.108 455.196 107.662 475.353Q105.215 495.51 103.597 515.751Q101.979 535.992 101.192 556.282Q100.406 576.572 100.452 596.877C100.469 610.299 100.333 623.741 101.784 637.105C103.802 655.696 106.87 683.384 120.078 697.417C144.299 697.511 166.657 702.965 188.391 713.678C194.932 716.903 201.527 721.833 208.52 723.869C219.939 727.211 249.856 718.69 260.943 714.099C284.602 704.302 301.434 686.708 311.178 663.19C302.167 665.65 284.091 672.546 275.68 672.748Q274.523 672.775 273.371 672.653Q272.22 672.532 271.093 672.264Q269.967 671.997 268.884 671.587Q267.801 671.178 266.779 670.633C264.126 669.203 261.552 666.917 260.064 664.274C256.582 658.094 253.686 646.671 251.273 639.644C246.231 624.952 240.745 610.394 236.065 595.582C224.976 599.507 213.914 602.762 202.071 603.023C192.581 602.918 183.24 601.067 174.595 597.116Q173.245 596.5 171.926 595.818Q170.608 595.136 169.325 594.39Q168.041 593.644 166.796 592.837Q165.551 592.029 164.346 591.161Q163.142 590.293 161.982 589.367Q160.822 588.441 159.709 587.46Q158.596 586.478 157.532 585.443Q156.468 584.408 155.456 583.322Q154.445 582.235 153.487 581.101Q152.53 579.967 151.63 578.787Q150.729 577.607 149.888 576.384Q149.047 575.161 148.266 573.898Q147.486 572.636 146.768 571.337Q146.051 570.037 145.398 568.704Q144.745 567.371 144.158 566.008Q143.571 564.645 143.052 563.254C146.553 565.659 149.482 568.892 152.519 571.846C158.462 577.628 164.632 582.697 172.092 586.416C189.158 594.924 206.658 594.35 224.475 588.344C230.653 586.261 240.268 582.802 243.175 576.43C244.035 574.543 244.381 571.989 243.495 570.046C240.68 563.873 228.115 563.932 222.475 562.215Q221.297 561.857 220.128 561.471Q218.959 561.084 217.8 560.669Q216.641 560.253 215.493 559.809Q214.345 559.364 213.208 558.892Q212.071 558.419 210.947 557.918Q209.822 557.417 208.71 556.889Q207.598 556.36 206.5 555.804Q205.402 555.248 204.317 554.664Q203.233 554.081 202.164 553.471Q201.094 552.861 200.041 552.224Q198.987 551.588 197.949 550.925Q196.911 550.263 195.89 549.575Q194.869 548.887 193.866 548.173Q192.862 547.46 191.877 546.722Q190.891 545.984 189.925 545.222Q188.958 544.459 188.01 543.673Q187.063 542.887 186.135 542.078Q185.207 541.268 184.3 540.436Q183.393 539.604 182.507 538.75Q181.62 537.895 180.756 537.019Q179.891 536.142 179.048 535.245Q178.205 534.347 177.385 533.429Q176.565 532.511 175.768 531.572Q174.971 530.634 174.198 529.676Q173.424 528.718 172.675 527.742Q171.925 526.765 171.2 525.77Q170.476 524.774 169.776 523.762Q169.076 522.749 168.401 521.719Q167.727 520.689 167.078 519.642Q166.429 518.596 165.807 517.534Q165.185 516.471 164.589 515.394Q163.993 514.317 163.424 513.225Q169.515 519.423 176.13 525.058Q182.746 530.693 189.835 535.719C199.347 542.991 211.945 548.72 223.221 552.745C220.235 543.352 212.815 527.395 211.645 518.597C211.118 514.63 212.374 510.901 214.884 507.809C216.687 505.589 218.838 504.137 221.414 502.961C226.664 500.565 232.342 498.89 237.805 497.031L265.291 487.746C275.004 484.452 293.013 476.688 302.228 475.778C311.852 459.282 317.601 441.911 317.521 422.727C315.682 422.743 313.548 422.998 311.989 421.887L312.214 421.161C313.95 420.146 315.546 420.047 317.521 419.843C317.16 417.671 316.701 415.517 316.261 413.36C314.643 414.476 312.395 416.329 310.393 416.34C310.304 415.094 310.686 414.985 311.384 414.001C312.826 412.362 314.098 410.514 315.423 408.774L314.84 405.53C312.311 391.97 308.609 376.646 299.946 365.556C296.365 360.972 291.34 357.074 285.371 356.536C281.247 356.164 277.366 357.461 274.201 360.109C267.055 366.087 264.552 376.251 263.839 385.128ZM247.451 558.467L248.485 558.544C248.81 557.652 248.929 557.149 249.613 556.467L250.425 557.375L249.689 558.988C249.828 559.234 249.99 559.469 250.106 559.728C250.756 561.171 250.887 562.625 251.731 564.04C251.77 564.193 251.808 564.346 251.849 564.499C252.494 566.914 253.281 567.539 255.38 568.768C256.354 570.855 255.144 573.605 254.572 575.706C254.228 576.688 253.919 577.694 253.483 578.639C251.224 582.897 248.223 585.776 244.633 588.932C251.14 604.497 256.114 620.895 261.614 636.849C264.04 643.886 265.924 653.008 270.195 659.025C271.316 660.604 272.49 661.104 274.409 661.283C276.304 661.46 278.369 661.172 280.213 660.739C283.784 659.902 287.323 658.46 290.828 657.362L311.636 650.929C322.752 647.45 334.386 644.566 345.266 640.449C346.956 639.81 348.73 639.022 350.129 637.861C351.785 636.486 352.745 634.35 352.881 632.219C353.028 629.908 351.863 626.685 351.168 624.486C347.422 612.641 305.315 491.36 302.562 488.275C301.017 487.784 299.877 487.82 298.291 488.185C290.738 489.924 282.938 493.426 275.533 495.882L241.272 507.615C237.312 508.98 233.232 510.074 229.328 511.592C227.504 512.301 224.094 513.5 223.417 515.482C221.441 521.261 232.676 547.059 235.881 553.663C238.042 554.239 246.544 558.528 247.451 558.467ZM268.669 318.003C267.886 318.689 266.444 319.531 266.341 320.559L269.066 321.87Q271.67 323.145 274.116 324.7Q276.562 326.256 278.82 328.073L279.703 328.515C280.221 327.489 280.012 326.557 279.663 325.483C278.841 322.959 276.048 319.489 273.572 318.43C272.1 317.801 270.233 317.829 268.669 318.003ZM331.757 537.329C332.457 540.096 335.5 551.336 337.403 552.701C337.743 547.653 336.772 542.962 333.423 538.987C332.907 538.374 332.382 537.828 331.757 537.329ZM297.253 704.031C288.148 711.484 279.664 716.836 268.606 721.049C273.09 720.691 277.603 720.421 282.069 719.879C287.702 719.094 304.662 717.279 307.885 713.024C308.511 712.198 308.626 711.232 308.173 710.29C306.548 706.916 300.576 705.084 297.253 704.031ZM124.173 707.213C117.275 707.71 110.136 707.988 103.676 710.707C118.761 722.255 158.172 724.972 177.314 725.977C184.045 725.996 190.788 726.092 197.516 725.915C178.846 716.705 159.818 710.25 139.03 707.96C134.271 707.436 128.952 706.859 124.173 707.213Z"/>
	<path fill="#5ACED6" d="M232.382 382.782C231.499 377.344 221.014 368.619 216.689 365.512Q215.944 364.987 215.175 364.499Q214.405 364.012 213.612 363.563Q212.82 363.114 212.006 362.704Q211.192 362.295 210.358 361.927Q209.525 361.558 208.675 361.232Q207.824 360.905 206.959 360.621Q206.093 360.337 205.214 360.096Q204.336 359.855 203.446 359.657Q202.557 359.46 201.659 359.307Q200.76 359.154 199.856 359.046Q198.951 358.937 198.042 358.874Q197.133 358.81 196.223 358.792Q195.312 358.774 194.401 358.8Q193.49 358.827 192.582 358.899Q191.674 358.971 190.77 359.087Q189.867 359.204 188.97 359.365Q188.105 359.514 187.248 359.706Q186.392 359.898 185.546 360.133Q184.7 360.368 183.867 360.646Q183.034 360.923 182.216 361.242Q181.398 361.56 180.597 361.92Q179.796 362.28 179.014 362.679Q178.233 363.078 177.472 363.517Q176.711 363.955 175.973 364.431Q175.236 364.907 174.523 365.419Q173.81 365.932 173.124 366.479Q172.438 367.027 171.78 367.608Q171.122 368.19 170.495 368.804Q169.867 369.418 169.271 370.062Q168.675 370.707 168.112 371.381Q167.55 372.055 167.021 372.756Q166.493 373.457 166.001 374.184C159.416 383.755 157.522 395.873 159.746 407.18C161.913 418.192 168.15 427.939 177.566 434.131C181.114 436.464 184.816 438.248 189.06 438.808C189.133 438.818 189.205 438.829 189.278 438.839C188.09 439.081 186.749 439.218 185.644 439.712C164.902 431.508 147.311 430.513 126.53 439.435Q126.036 439.648 125.547 439.873C143.996 437.394 161.719 435.867 180.017 440.482C184.122 441.517 187.741 444.24 191.753 445.183C192.073 446.197 192.396 446.963 192.315 448.041C182.073 443.491 165.674 448.461 155.892 452.229C146.737 455.756 138.129 460.012 130.543 466.294C152.995 456.02 167.957 451.938 193.086 450.885C193.874 452.708 194.753 455.527 194.026 457.488C193.949 457.697 193.822 457.884 193.719 458.082C184.434 457.775 174.26 465.329 167.863 471.363C161.253 477.598 156.607 484.242 152.984 492.543C161.779 482.271 170.391 472.038 182.454 465.445C186.514 463.226 190.919 461.76 194.964 459.584C196.237 461.641 194.309 467.466 193.747 469.85C188.758 491.014 185.635 514.194 189.835 535.719Q182.746 530.693 176.13 525.058Q169.515 519.423 163.424 513.225Q163.993 514.317 164.589 515.394Q165.185 516.472 165.807 517.534Q166.429 518.596 167.078 519.642Q167.727 520.689 168.401 521.719Q169.076 522.749 169.776 523.762Q170.476 524.774 171.2 525.77Q171.925 526.765 172.675 527.742Q173.424 528.718 174.198 529.676Q174.971 530.634 175.768 531.572Q176.565 532.511 177.385 533.429Q178.205 534.347 179.048 535.245Q179.891 536.142 180.756 537.019Q181.62 537.895 182.507 538.749Q183.393 539.604 184.3 540.436Q185.207 541.268 186.135 542.078Q187.063 542.887 188.01 543.673Q188.958 544.459 189.925 545.222Q190.891 545.984 191.877 546.722Q192.862 547.46 193.866 548.173Q194.869 548.887 195.89 549.575Q196.911 550.263 197.949 550.925Q198.987 551.588 200.041 552.224Q201.094 552.861 202.164 553.471Q203.233 554.081 204.317 554.664Q205.402 555.248 206.5 555.804Q207.598 556.36 208.71 556.889Q209.822 557.417 210.947 557.918Q212.071 558.419 213.208 558.892Q214.345 559.364 215.493 559.809Q216.641 560.253 217.8 560.669Q218.959 561.084 220.128 561.471Q221.297 561.857 222.475 562.215C228.115 563.932 240.68 563.873 243.495 570.046C244.381 571.989 244.035 574.543 243.175 576.43C240.268 582.802 230.653 586.261 224.475 588.344C206.658 594.35 189.158 594.924 172.092 586.416C164.632 582.697 158.462 577.628 152.519 571.846C149.482 568.892 146.553 565.659 143.052 563.254Q143.571 564.645 144.158 566.008Q144.745 567.371 145.398 568.704Q146.051 570.037 146.768 571.337Q147.486 572.636 148.266 573.898Q149.047 575.161 149.888 576.384Q150.729 577.607 151.63 578.787Q152.53 579.967 153.487 581.101Q154.445 582.235 155.456 583.322Q156.468 584.408 157.532 585.443Q158.596 586.478 159.709 587.46Q160.822 588.441 161.982 589.367Q163.142 590.293 164.346 591.161Q165.551 592.029 166.796 592.837Q168.041 593.645 169.325 594.39Q170.608 595.136 171.926 595.818Q173.245 596.5 174.595 597.116C183.24 601.067 192.581 602.918 202.071 603.023C198.173 611.915 194.8 620.903 192.695 630.409C187.684 653.032 188.701 681.645 197.091 703.278C199.979 710.726 204.03 717.308 208.52 723.869C201.527 721.833 194.932 716.903 188.391 713.678C166.657 702.965 144.299 697.511 120.078 697.417C106.87 683.384 103.802 655.696 101.784 637.105C100.333 623.741 100.469 610.299 100.452 596.877Q100.406 576.572 101.192 556.282Q101.979 535.992 103.597 515.751Q105.215 495.511 107.662 475.353Q110.108 455.196 113.38 435.156C116.051 419.692 118.637 403.831 123.988 389.027C127.816 378.44 131.782 372.414 138.673 363.842C138.592 363.643 138.534 363.432 138.428 363.245C138.274 362.974 138.074 362.732 137.898 362.476L139.75 361.273L139.005 360.814C130.291 361.828 115.342 353.84 111.216 355.312L110.955 356.122C111.998 358.172 113.654 359.702 115.412 361.159Q115.807 361.482 116.217 361.784Q116.627 362.087 117.052 362.369Q117.477 362.651 117.915 362.912Q118.353 363.173 118.803 363.411Q119.254 363.65 119.715 363.867Q120.177 364.083 120.649 364.276Q121.12 364.469 121.601 364.639Q122.082 364.809 122.57 364.955Q123.059 365.101 123.554 365.222Q124.049 365.344 124.55 365.441Q125.05 365.538 125.555 365.61Q126.059 365.682 126.567 365.729Q127.075 365.777 127.584 365.799Q128.093 365.821 128.603 365.818Q129.113 365.815 129.622 365.786Q130.131 365.758 130.638 365.705C130.828 365.686 131.018 365.663 131.209 365.642C129.28 367.599 127.182 369.943 124.845 371.393C121.677 373.359 118.078 374.144 114.451 373.082C110.672 371.975 107.824 369.067 106.066 365.622C103.904 361.385 103.476 356.522 105.122 352.034C106.461 348.382 109.023 345.227 112.666 343.709C122.093 339.782 128.178 347.885 136.135 351.011C136.332 351.089 136.532 351.161 136.73 351.236C138.522 350.732 140.397 350.265 141.997 349.284C149.465 344.705 159.906 332.209 167.839 325.634C176.902 318.122 189.592 308.832 200.238 304.024C191.14 311.295 184.069 320.311 178.761 330.664C195.579 325.324 211.795 320.631 229.646 320.93C256.212 321.374 274.96 336.235 292.686 354.542C288.968 352.775 285.567 351.544 281.351 351.988C276.457 352.504 272.391 355.31 269.475 359.179C263.826 366.674 262.718 376.07 263.839 385.128C264.005 389.519 263.574 394.65 265.436 398.699C259.854 397.367 254.98 398.034 250.007 401.096C247.402 402.7 245.185 404.883 242.71 406.682C241.722 405.983 241.755 405.127 241.44 403.995C239.273 396.323 236.513 389.635 232.382 382.782ZM127.226 523.844C123.861 526.826 122.225 530.466 121.867 534.963C121.621 538.051 122.033 542.061 123.715 544.707C124.102 538.056 125.502 531.114 127.712 524.828C127.498 523.977 127.718 524.269 127.226 523.844ZM114.146 540.348C110.606 544.386 109.501 549.321 109.85 554.612C109.996 556.832 110.326 559.167 111.35 561.17C112.862 556.691 111.993 551.566 113.3 546.862C113.777 545.145 114.895 542.306 114.438 540.626L114.146 540.348ZM136.015 542.817C132.741 545.528 131.075 548.571 130.664 552.873C130.291 556.778 131.082 560.113 133.388 563.27C134.331 561.902 133.281 555.89 133.506 553.781C133.869 550.383 135.368 546.512 136.666 543.338L136.015 542.817ZM121.251 557.897C117.78 562.844 116.576 567.883 117.688 573.875C117.995 575.532 118.655 577.101 119.408 578.601L119.89 578.244C119.862 575.495 119.872 572.788 120.196 570.055C120.571 566.891 122.063 562.023 121.711 559.002C121.621 558.229 121.588 558.245 121.251 557.897ZM129.434 575.409C126.347 579.072 124.741 583.266 125.196 588.091C125.431 590.584 126.157 593.004 127.093 595.319L127.847 595.218C128.131 592.554 127.933 589.908 128.225 587.254C128.537 584.425 130.584 578.095 129.673 575.659L129.434 575.409ZM110.4 578.74C106.924 584.994 106.983 591.598 108.176 598.447L108.733 599.11C109.582 594.791 111.879 582.732 111.031 579.038L110.4 578.74ZM137.324 594.339C134.633 597.264 133.464 600.831 133.61 604.795C133.7 607.252 134.261 609.849 134.988 612.186L135.694 611.945C136.153 608.198 138.058 597.357 137.324 594.339ZM117.267 597.389C114.213 602.321 113.722 608.374 115.125 613.947C115.44 615.196 115.902 616.391 116.391 617.58C117.017 616.713 118.129 600.019 117.768 598.267C117.642 597.658 117.669 597.792 117.267 597.389ZM125.558 613.284C122.682 616.946 121.912 621.182 122.435 625.775C122.805 629.013 123.653 631.965 125.204 634.846L125.822 635.211L125.735 634.569C125.259 630.807 126.363 614.801 125.558 613.284ZM109.71 620.348C106.623 626.522 106.93 633.366 109.072 639.785Q109.562 641.232 110.134 642.649C110.674 636.427 111.241 626.349 109.71 620.348ZM135.16 627.321C131.321 634.889 132.552 643.607 134.881 651.43L135.503 651.516C135.667 647.855 136.197 629.359 135.579 627.703L135.16 627.321ZM118.147 644.835C115.075 650.546 115.223 658.15 117.071 664.277C117.555 665.883 118.126 667.45 118.935 668.921C119.957 667.674 119.016 662.768 118.832 660.97C118.438 657.117 119.581 647.359 118.147 644.835Z"/>
	<path fill="#5ACED6" d="M278.82 328.073Q276.562 326.256 274.116 324.7Q271.67 323.145 269.066 321.87L266.341 320.559C266.444 319.531 267.886 318.689 268.669 318.003C270.233 317.829 272.1 317.801 273.572 318.43C276.048 319.489 278.841 322.959 279.663 325.483C280.012 326.557 280.221 327.489 279.703 328.515L278.82 328.073Z"/>
	<path fill="#FEFEFE" d="M263.839 385.128C264.552 376.251 267.055 366.087 274.201 360.109C277.366 357.461 281.247 356.164 285.371 356.536C291.34 357.074 296.365 360.972 299.946 365.556C308.609 376.646 312.311 391.97 314.84 405.53C313.815 406.082 313.275 406.512 312.058 406.117C311.682 405.995 311.15 405.613 310.813 405.388C311.556 400.902 311.404 396.64 310.281 392.24C308.798 386.428 305.678 380.521 300.299 377.492Q299.601 377.095 298.867 376.772Q298.132 376.448 297.368 376.2Q296.605 375.952 295.82 375.783Q295.035 375.614 294.237 375.526Q293.439 375.437 292.637 375.43Q291.834 375.423 291.035 375.497Q290.235 375.571 289.448 375.726Q288.66 375.881 287.892 376.115C283.27 377.535 279.59 380.922 277.471 385.231C274.223 391.837 274.975 399.391 277.302 406.127C275.908 407.023 275.207 406.809 273.578 406.787C273.466 406.505 273.359 406.22 273.24 405.941C271.801 402.555 268.741 400.874 265.512 399.538L265.436 398.699C263.574 394.65 264.005 389.519 263.839 385.128Z"/>
	<path fill="#17415B" d="M232.382 382.782C225.056 373.952 215.143 367.222 203.486 366.061Q202.667 365.977 201.845 365.934Q201.023 365.89 200.2 365.887Q199.376 365.884 198.554 365.921Q197.732 365.958 196.912 366.036Q196.092 366.113 195.278 366.231Q194.463 366.349 193.655 366.506Q192.847 366.664 192.047 366.86Q191.248 367.057 190.459 367.293Q189.671 367.529 188.895 367.804Q188.118 368.078 187.357 368.39Q186.595 368.702 185.849 369.051Q185.104 369.4 184.376 369.786Q183.649 370.171 182.941 370.592Q182.233 371.012 181.547 371.467Q180.861 371.921 180.198 372.409Q179.534 372.897 178.896 373.417C171.902 379.173 168.043 387.886 167.217 396.799Q167.125 397.78 167.081 398.764Q167.037 399.748 167.042 400.733Q167.046 401.718 167.098 402.701Q167.15 403.685 167.251 404.665Q167.351 405.645 167.499 406.618Q167.647 407.592 167.842 408.558Q168.037 409.523 168.279 410.478Q168.522 411.432 168.81 412.374Q169.099 413.316 169.433 414.243Q169.767 415.169 170.146 416.078Q170.524 416.988 170.947 417.877Q171.37 418.767 171.836 419.635Q172.302 420.503 172.809 421.347Q173.317 422.191 173.865 423.009Q174.413 423.828 175 424.618Q175.588 425.409 176.213 426.17C180.86 431.761 186.766 435.583 193.329 438.551C191.849 438.921 190.803 438.943 189.278 438.839C189.205 438.829 189.133 438.818 189.06 438.808C184.816 438.248 181.114 436.464 177.566 434.131C168.15 427.939 161.913 418.192 159.746 407.18C157.522 395.873 159.416 383.755 166.001 374.184Q166.493 373.457 167.021 372.756Q167.55 372.055 168.112 371.381Q168.675 370.707 169.271 370.062Q169.867 369.418 170.495 368.804Q171.122 368.19 171.78 367.608Q172.438 367.027 173.124 366.479Q173.81 365.932 174.523 365.419Q175.236 364.907 175.973 364.431Q176.711 363.955 177.472 363.517Q178.233 363.078 179.014 362.679Q179.796 362.28 180.597 361.92Q181.398 361.56 182.216 361.242Q183.034 360.923 183.867 360.646Q184.7 360.368 185.546 360.133Q186.392 359.898 187.248 359.706Q188.105 359.514 188.97 359.365Q189.867 359.204 190.77 359.087Q191.674 358.971 192.582 358.899Q193.49 358.827 194.401 358.8Q195.312 358.774 196.223 358.792Q197.133 358.81 198.042 358.874Q198.951 358.937 199.856 359.046Q200.76 359.154 201.659 359.307Q202.557 359.46 203.446 359.657Q204.336 359.855 205.214 360.096Q206.093 360.337 206.959 360.621Q207.824 360.905 208.675 361.232Q209.525 361.558 210.358 361.927Q211.192 362.295 212.006 362.704Q212.82 363.114 213.612 363.563Q214.405 364.012 215.175 364.499Q215.944 364.987 216.689 365.512C221.014 368.619 231.499 377.344 232.382 382.782Z"/>
	<path fill="#FEFEFE" d="M193.329 438.551C186.766 435.583 180.86 431.761 176.213 426.17Q175.588 425.409 175 424.618Q174.413 423.828 173.865 423.009Q173.317 422.191 172.809 421.347Q172.302 420.503 171.836 419.635Q171.37 418.767 170.947 417.877Q170.524 416.988 170.146 416.078Q169.767 415.169 169.433 414.243Q169.099 413.316 168.81 412.374Q168.522 411.432 168.279 410.478Q168.037 409.523 167.842 408.558Q167.647 407.592 167.499 406.618Q167.351 405.645 167.251 404.665Q167.15 403.685 167.098 402.701Q167.046 401.718 167.042 400.733Q167.037 399.748 167.081 398.764Q167.125 397.78 167.217 396.799C168.043 387.886 171.902 379.173 178.896 373.417Q179.534 372.897 180.198 372.409Q180.861 371.921 181.547 371.467Q182.233 371.012 182.941 370.591Q183.649 370.171 184.376 369.786Q185.104 369.4 185.849 369.051Q186.595 368.702 187.357 368.39Q188.118 368.078 188.895 367.804Q189.671 367.529 190.459 367.293Q191.248 367.057 192.047 366.86Q192.847 366.664 193.655 366.506Q194.463 366.349 195.278 366.231Q196.092 366.113 196.912 366.036Q197.732 365.958 198.554 365.921Q199.376 365.884 200.2 365.887Q201.023 365.89 201.845 365.934Q202.667 365.977 203.486 366.061C215.143 367.222 225.056 373.952 232.382 382.782C236.513 389.635 239.273 396.323 241.44 403.995C238.777 415.704 232.871 424.469 222.632 430.949Q221.488 431.663 220.303 432.306Q219.118 432.949 217.896 433.519Q216.673 434.089 215.419 434.583Q214.164 435.077 212.882 435.494Q211.6 435.911 210.294 436.248Q208.989 436.586 207.665 436.844Q206.342 437.102 205.005 437.279Q203.668 437.455 202.323 437.55C199.383 437.782 196.166 437.739 193.329 438.551ZM211.477 387.581C206.101 388.957 201.575 391.273 198.543 396.14C195.246 401.435 194.606 408.616 196.169 414.58C197.651 420.234 201.282 425.253 206.442 428.08C210.246 430.164 214.13 430.708 218.399 430.362C224.677 427.995 229.525 424.522 232.307 418.187C234.857 412.381 234.712 405.685 232.269 399.872C230.201 394.951 226.334 390.735 221.356 388.699C218.109 387.371 214.924 387.312 211.477 387.581Z"/>
	<path fill="#17415B" d="M277.302 406.127C274.975 399.391 274.223 391.837 277.471 385.231C279.59 380.922 283.27 377.535 287.892 376.115Q288.66 375.881 289.448 375.726Q290.235 375.571 291.035 375.497Q291.834 375.423 292.637 375.43Q293.439 375.437 294.237 375.526Q295.035 375.614 295.82 375.783Q296.605 375.952 297.368 376.2Q298.132 376.448 298.867 376.772Q299.601 377.095 300.299 377.492C305.678 380.521 308.798 386.428 310.281 392.24C311.404 396.64 311.556 400.902 310.813 405.388C310.013 407.678 309.204 409.771 307.988 411.888C306.838 413.108 305.598 414.278 304.189 415.198C300.234 417.783 294.971 418.566 290.411 417.429C284.121 415.861 280.425 411.469 277.302 406.127ZM294.6 381.036C292.446 382.079 290.455 382.895 289.673 385.376C289.047 387.365 288.463 390.535 289.549 392.478C290.511 394.202 292.131 395.176 294.023 395.618C295.999 396.08 298.077 396.338 300.092 396.557C300.543 397.881 300.951 399.251 301.485 400.542C303.166 400.853 303.374 400.997 304.989 400.245C306.239 398.739 306.423 397.613 306.214 395.724C305.769 391.706 303.458 384.937 300.285 382.435C298.435 380.977 296.844 381.013 294.6 381.036Z"/>
	<path fill="#FEFEFE" d="M301.485 400.542C300.951 399.251 300.543 397.881 300.092 396.557C298.077 396.338 295.999 396.08 294.023 395.618C292.131 395.176 290.511 394.202 289.549 392.478C288.463 390.535 289.047 387.365 289.673 385.376C290.455 382.895 292.446 382.079 294.6 381.036C296.844 381.013 298.435 380.977 300.285 382.435C303.458 384.937 305.769 391.706 306.214 395.724C306.423 397.613 306.239 398.739 304.989 400.245C303.374 400.997 303.166 400.853 301.485 400.542Z"/>
	<path fill="#17415B" d="M218.399 430.362C214.13 430.708 210.246 430.164 206.442 428.08C201.282 425.253 197.651 420.234 196.169 414.58C194.606 408.616 195.246 401.435 198.543 396.14C201.575 391.273 206.101 388.957 211.477 387.581C214.924 387.312 218.109 387.371 221.356 388.699C226.334 390.735 230.201 394.951 232.269 399.872C234.712 405.685 234.857 412.381 232.307 418.187C229.525 424.522 224.677 427.995 218.399 430.362ZM217.599 392.496C215.03 393.688 213.258 394.936 212.337 397.734C211.602 399.964 212.039 402.388 213.176 404.403C214.456 406.673 216.625 408.538 219.153 409.246C220.143 409.524 221.189 409.584 222.21 409.646C224.317 408.887 225.783 408.316 226.833 406.197C227.86 404.125 227.757 401.707 226.961 399.578C225.958 396.897 223.768 394.349 221.115 393.202C219.99 392.716 218.807 392.6 217.599 392.496Z"/>
	<path fill="#FEFEFE" d="M222.21 409.646C221.189 409.584 220.143 409.524 219.153 409.246C216.625 408.538 214.456 406.673 213.176 404.403C212.039 402.388 211.602 399.964 212.337 397.734C213.258 394.936 215.03 393.688 217.599 392.496C218.807 392.6 219.99 392.716 221.115 393.202C223.768 394.349 225.958 396.897 226.961 399.578C227.757 401.707 227.86 404.125 226.833 406.197C225.783 408.316 224.317 408.887 222.21 409.646Z"/>
	<path fill="#B5F7FB" d="M241.44 403.995C241.755 405.127 241.722 405.983 242.71 406.682C245.185 404.883 247.402 402.7 250.007 401.096C254.98 398.034 259.854 397.367 265.436 398.699L265.512 399.538C259.666 399.445 252.19 400.234 247.761 404.408C245.692 406.358 244.141 409.03 244.226 411.94C244.319 415.13 246.136 417.919 248.466 419.983Q248.801 420.283 249.151 420.565Q249.502 420.847 249.866 421.11Q250.23 421.374 250.607 421.618Q250.985 421.863 251.374 422.088Q251.763 422.312 252.164 422.517Q252.564 422.721 252.975 422.905Q253.385 423.088 253.805 423.251Q254.224 423.413 254.651 423.553Q255.078 423.694 255.512 423.812Q255.946 423.93 256.385 424.026Q256.824 424.122 257.268 424.195Q257.712 424.268 258.158 424.318Q258.605 424.368 259.054 424.395Q259.503 424.422 259.952 424.426Q260.402 424.43 260.851 424.411Q261.3 424.391 261.748 424.349C265.218 424.007 268.695 422.6 270.941 419.85C273.706 416.467 274.236 411.781 273.692 407.587C273.657 407.32 273.616 407.053 273.578 406.787C275.207 406.809 275.908 407.023 277.302 406.127C280.425 411.469 284.121 415.861 290.411 417.429C294.971 418.566 300.234 417.783 304.189 415.198C305.598 414.278 306.838 413.108 307.988 411.888C309.06 413.117 309.903 413.475 311.384 414.001C310.686 414.985 310.304 415.094 310.393 416.34C312.395 416.329 314.643 414.476 316.261 413.36C316.701 415.517 317.16 417.671 317.521 419.843C315.546 420.047 313.95 420.146 312.214 421.161L311.989 421.887C313.548 422.998 315.682 422.743 317.521 422.727C317.601 441.911 311.852 459.282 302.228 475.778C293.013 476.688 275.004 484.452 265.291 487.746L237.805 497.031C232.342 498.89 226.664 500.565 221.414 502.961C218.838 504.137 216.687 505.589 214.884 507.809C212.374 510.901 211.118 514.63 211.645 518.597C212.815 527.395 220.235 543.352 223.221 552.745C211.945 548.72 199.347 542.991 189.835 535.719C185.635 514.194 188.758 491.014 193.747 469.85C194.309 467.466 196.237 461.641 194.964 459.584L193.719 458.082C193.822 457.884 193.949 457.697 194.026 457.488C194.753 455.527 193.874 452.708 193.086 450.885L192.315 448.041C192.396 446.963 192.073 446.197 191.753 445.183C190.657 442.74 187.783 441.171 185.644 439.712C186.749 439.218 188.09 439.081 189.278 438.839C190.803 438.943 191.849 438.921 193.329 438.551C196.166 437.739 199.383 437.782 202.323 437.55Q203.668 437.455 205.005 437.278Q206.342 437.102 207.665 436.844Q208.989 436.586 210.294 436.248Q211.6 435.911 212.882 435.494Q214.164 435.077 215.419 434.583Q216.673 434.089 217.896 433.519Q219.118 432.949 220.303 432.306Q221.488 431.663 222.632 430.949C232.871 424.469 238.777 415.704 241.44 403.995ZM280.094 425.189C277.386 432.433 276.1 436.721 268.457 440.248C262.362 443.061 254.029 444.368 247.683 441.903C244.768 440.771 241.55 435.037 238.396 436.034C237.823 437.548 238.005 438.978 238.62 440.455C238.715 440.684 238.834 440.902 238.941 441.126C243.318 445.725 248.397 447.847 254.76 448.011C262.334 448.206 270.556 445.408 275.969 440.023C278.722 437.285 281.852 432.877 281.812 428.799C281.801 427.774 281.538 426.906 281.213 425.944L280.094 425.189Z"/>
	<path fill="#17415B" d="M273.578 406.787C273.616 407.053 273.657 407.32 273.692 407.587C274.236 411.781 273.706 416.467 270.941 419.85C268.695 422.6 265.218 424.007 261.748 424.349Q261.3 424.391 260.851 424.411Q260.402 424.43 259.952 424.426Q259.503 424.422 259.054 424.395Q258.605 424.368 258.158 424.318Q257.712 424.268 257.268 424.195Q256.824 424.122 256.385 424.026Q255.946 423.93 255.512 423.812Q255.078 423.694 254.651 423.553Q254.224 423.413 253.805 423.251Q253.385 423.088 252.975 422.905Q252.564 422.721 252.164 422.517Q251.763 422.312 251.374 422.088Q250.985 421.863 250.607 421.618Q250.23 421.374 249.866 421.11Q249.502 420.847 249.151 420.565Q248.801 420.283 248.466 419.983C246.136 417.919 244.319 415.13 244.226 411.94C244.141 409.03 245.692 406.358 247.761 404.408C252.19 400.234 259.666 399.445 265.512 399.538C268.741 400.874 271.801 402.555 273.24 405.941C273.359 406.22 273.466 406.505 273.578 406.787ZM262.577 401.264C262.647 402.871 262.645 403.207 263.5 404.548C265.022 405.413 266.266 405.451 267.992 405.539C267.824 403.96 267.721 403.691 266.796 402.401C265.293 401.562 264.286 401.369 262.577 401.264Z"/>
	<path fill="#FEFEFE" d="M267.992 405.539C266.266 405.451 265.022 405.413 263.5 404.548C262.645 403.207 262.647 402.871 262.577 401.264C264.286 401.369 265.293 401.562 266.796 402.401C267.721 403.691 267.824 403.96 267.992 405.539Z"/>
	<path fill="#DBFCFA" d="M314.84 405.53L315.423 408.774C314.098 410.514 312.826 412.362 311.384 414.001C309.903 413.475 309.06 413.117 307.988 411.888C309.204 409.771 310.013 407.678 310.813 405.388C311.15 405.613 311.682 405.995 312.058 406.117C313.275 406.512 313.815 406.082 314.84 405.53Z"/>
	<path fill="#17415B" d="M238.941 441.126C238.834 440.902 238.715 440.684 238.62 440.455C238.005 438.978 237.823 437.548 238.396 436.034C241.55 435.037 244.768 440.771 247.683 441.903C254.029 444.368 262.362 443.061 268.457 440.248C276.1 436.721 277.386 432.433 280.094 425.189L281.213 425.944C281.538 426.906 281.801 427.774 281.812 428.799C281.852 432.877 278.722 437.285 275.969 440.023C270.556 445.408 262.334 448.206 254.76 448.011C248.397 447.847 243.318 445.725 238.941 441.126Z"/>
	<path fill="#17415B" d="M418.882 487.025C423.316 486.948 428.963 486.269 433.15 487.714C434.856 489.399 435.216 492.701 435.511 495.016C436.376 501.8 437.551 529.525 436.013 535.274C435.391 537.6 433.823 539.863 432.341 541.744C425.864 549.97 415.819 554.543 405.565 555.61C391.142 557.112 378.541 553.067 367.439 543.843C354.4 533.01 349.182 518.732 347.795 502.203C346.239 483.656 349.838 464.232 362.257 449.802C371.813 438.699 383.357 433.274 397.845 432.212C403.352 431.953 409.141 433.019 414.361 434.729C419.972 436.568 429.072 440.23 431.654 445.917C432.721 448.266 432.417 450.889 431.406 453.196C428.739 459.279 424.854 462.191 418.874 464.485C416.033 461.215 413.332 458.344 409.259 456.572C403.719 454.163 396.58 454.234 391.028 456.57C384.206 459.44 379.305 465.442 376.613 472.192C371.466 485.099 371.955 504.309 377.479 517.008C380.178 523.21 384.72 528.458 391.166 530.895C400.323 534.357 409.501 531.771 418.005 527.927C418.149 521.008 417.54 513.983 417.418 507.048L408.671 507.375C405.53 507.487 402.793 507.243 400.468 504.923C398.135 502.596 397.004 499.072 397.038 495.823C397.062 493.563 397.729 490.946 399.483 489.389C403.671 485.672 413.564 486.951 418.882 487.025Z"/>
	<path fill="#17415B" d="M125.547 439.873Q126.036 439.648 126.53 439.435C147.311 430.513 164.902 431.508 185.644 439.712C187.783 441.171 190.657 442.74 191.753 445.183C187.741 444.24 184.122 441.517 180.017 440.482C161.719 435.867 143.996 437.394 125.547 439.873Z"/>
	<path fill="#17415B" d="M696.513 476.573C697.21 492.737 696.891 508.979 696.767 525.154C696.711 532.386 697.288 540.083 696.706 547.259C696.586 548.736 696.26 550.235 695.444 551.495C694.05 553.647 691.507 554.275 689.121 554.673C685.584 555.262 681.611 555.415 678.614 553.204C677.693 551.884 677.766 550.19 677.714 548.632C677.443 540.438 678.108 532.117 678.209 523.913Q678.431 498.775 677.785 473.645C677.619 468.816 675.988 437.946 677.496 435.503C677.743 435.104 678.137 434.816 678.458 434.473C680.504 433.606 682.732 433.782 684.921 433.75C687.81 433.638 691.665 433.099 694.383 434.166C695.793 434.72 696.552 435.765 697.401 436.948C701.989 443.343 705.534 451.116 709.374 458.01C712.905 464.348 717.114 470.54 719.912 477.228L733.463 453.235C736.244 448.308 738.872 443.087 742.063 438.413C743.777 435.902 745.128 434.169 748.274 433.682C751.646 433.16 757.674 432.868 760.331 435.176C761.27 435.992 761.003 438.4 761.015 439.602C761.197 457.795 760.037 475.96 759.739 494.143C759.412 514.143 759.967 534.174 759.839 554.184C756.951 554.766 753.951 555.178 750.998 555.187C748.612 555.195 744.856 554.792 743.219 552.766C741.963 551.211 741.51 548.97 741.245 547.035C740.478 541.456 741.006 535.218 741.034 529.575L741.149 498.25Q741.286 487.829 741.536 477.41C738.391 483.885 727.517 507.095 722.946 510.822C721.772 511.779 720.375 512.432 718.82 512.14C717.383 511.87 716.178 510.885 715.244 509.81C710.314 504.136 700.894 484.491 696.513 476.573Z"/>
	<path fill="#17415B" d="M326.414 435.945C335.683 438.558 343.156 441.815 350.657 447.908C342.665 444.067 334.691 441.384 326.395 438.334L326.414 435.945Z"/>
	<path fill="#17415B" d="M507.003 470.016C507.715 469.068 508.441 468.134 509.28 467.292C511.593 464.971 512.762 464.556 515.921 464.609C518.522 462.879 518.965 455.431 520.071 452.334C522.374 445.89 527.433 442.198 533.373 439.408C534.186 439.448 534.922 439.566 535.722 439.707C537.305 442.561 536.332 460.242 536.514 464.944L547.95 465.206Q548.342 473.973 547.983 482.742C544.214 483.1 540.324 482.958 536.535 482.99C536.318 496.348 536.24 509.794 536.43 523.151C536.467 525.776 536.07 530.058 538.261 531.891C540.958 534.147 545.977 533.319 549.211 533.196C549.512 534.555 549.72 535.905 549.905 537.283C550.405 541.017 551.62 546.456 548.962 549.623C546.107 553.025 540.178 552.738 536.169 552.979C531.936 552.453 528.402 551.446 525.142 548.557C521.956 545.734 520.163 541.917 519.168 537.842C517.542 531.179 517.995 523.743 517.982 516.914C517.961 505.663 518.335 494.254 517.675 483.031L507.762 482.966C507.235 478.657 506.894 474.358 507.003 470.016Z"/>
	<path fill="#17415B" d="M836.841 464.988C838.037 457.843 839.522 448.632 843.83 442.635C844.832 441.242 845.397 441.042 847.044 440.714L854.343 440.835L854.549 464.69C858.568 464.984 865.239 463.836 868.738 466.039C869.888 466.763 870.535 467.684 870.791 469.036C871.557 473.079 868.011 479.996 865.935 483.452L854.04 483.689C854.936 496.553 853.873 509.485 854.417 522.352C854.545 525.364 854.955 530.71 857.619 532.669C860.573 534.841 865.548 533.692 868.912 533.348C870.183 538.942 871.975 548.153 869.437 553.495C868.11 554.482 867.725 554.411 866.125 554.533C857.856 554.796 849.816 555.003 843.444 548.758C840.272 545.65 838.334 541.577 837.344 537.286C835.674 530.049 836.404 522.003 836.391 514.614L836.294 483.093C833.735 483.143 829.654 483.693 827.23 482.964C826.433 482.724 826.048 482.491 825.697 481.743C823.598 477.272 827.042 469.024 828.785 464.772C831.438 464.59 834.185 464.866 836.841 464.988Z"/>
	<path fill="#17415B" d="M130.543 466.294C138.129 460.012 146.737 455.756 155.892 452.229C165.674 448.461 182.073 443.491 192.315 448.041L193.086 450.885C167.957 451.938 152.995 456.02 130.543 466.294Z"/>
	<path fill="#17415B" d="M152.984 492.543C156.607 484.242 161.253 477.598 167.863 471.363C174.26 465.329 184.434 457.775 193.719 458.082L194.964 459.584C190.919 461.76 186.514 463.226 182.454 465.445C170.391 472.038 161.779 482.271 152.984 492.543Z"/>
	<path fill="#17415B" d="M620.627 529.983C616.865 525.075 614.366 520.162 613.066 514.097C610.442 501.852 611.695 488.213 618.754 477.617C624.149 469.518 631.805 464.943 641.248 463.11C651.761 462.39 659.479 464.548 668.471 469.994L662.082 478.145C664.21 480.485 666.245 482.952 667.723 485.762C671.864 493.637 672.115 503.804 669.471 512.215C666.371 522.078 659.511 528.245 650.61 532.942C651.833 533.194 653.058 533.464 654.241 533.87C660.639 536.063 666.833 541.406 669.716 547.494C672.833 554.078 673.081 562.235 670.633 569.065Q670.407 569.692 670.151 570.308Q669.894 570.923 669.607 571.525Q669.32 572.127 669.004 572.713Q668.687 573.3 668.342 573.871Q667.997 574.441 667.623 574.993Q667.25 575.546 666.85 576.079Q666.45 576.612 666.023 577.125Q665.597 577.637 665.146 578.128Q664.694 578.619 664.219 579.086Q663.744 579.554 663.246 579.997Q662.748 580.441 662.229 580.859Q661.71 581.277 661.17 581.669Q660.631 582.06 660.073 582.425Q659.514 582.789 658.939 583.125Q658.363 583.462 657.771 583.769Q657.179 584.076 656.573 584.353C646.971 588.837 636.037 588.435 626.262 584.832C621.314 582.64 617.66 579.705 614.098 575.685C616.23 569.573 619.7 565.299 625.015 561.706C628.96 564.108 632.474 566.201 637.096 567.139C641.56 568.044 647.545 567.592 651.363 564.875C653.258 563.525 654.328 561.522 654.679 559.246C655.174 556.031 654.225 552.329 652.271 549.734C646.383 541.916 634.613 545.34 626.577 544.234C624.564 543.957 622.687 543.172 621.464 541.483C619.049 538.146 620.097 533.741 620.627 529.983ZM638.023 485.083C633.988 487.339 632.183 489.853 630.843 494.295C629.03 500.303 628.944 508.681 632.12 514.192C633.567 516.702 635.768 518.58 638.632 519.217C640.937 519.73 642.96 519.242 645.137 518.485C649.793 515.682 652.8 512.023 654.102 506.655C655.337 501.568 654.469 495.861 651.658 491.428C649.679 488.307 646.446 485.823 642.771 485.122C641.231 484.828 639.579 484.983 638.023 485.083Z"/>
	<path fill="#17415B" d="M477.121 554.855C469.067 555.261 461.666 553.049 455.381 547.915C445.674 539.985 441.247 528.444 440.003 516.277C438.538 501.947 441.449 486.626 450.795 475.294C456.789 468.027 463.988 464.634 473.278 463.679Q473.998 463.647 474.718 463.648Q475.438 463.648 476.158 463.682Q476.877 463.716 477.595 463.783Q478.312 463.85 479.025 463.949Q479.739 464.049 480.447 464.181Q481.155 464.313 481.856 464.478Q482.558 464.642 483.251 464.839Q483.944 465.035 484.627 465.263Q485.31 465.491 485.982 465.75Q486.655 466.009 487.314 466.299Q487.974 466.589 488.619 466.908Q489.265 467.228 489.895 467.577Q490.525 467.925 491.139 468.303Q491.753 468.68 492.348 469.085Q492.944 469.49 493.52 469.922Q494.097 470.354 494.653 470.812C504.162 478.499 508.684 490.145 509.975 502.01C511.442 515.49 509.261 531.54 500.463 542.354C494.439 549.758 486.536 553.844 477.121 554.855ZM472.67 484.588C467.358 486.57 463.711 489.433 461.23 494.69C457.495 502.604 457.547 513.459 460.675 521.567C462.432 526.123 465.471 530.307 470.052 532.317C472.695 533.477 475.147 533.589 477.974 533.368C483.784 530.907 487.439 527.496 489.769 521.463C492.974 513.166 492.766 502.804 489.023 494.713C486.994 490.328 483.704 486.704 479.007 485.204C476.92 484.537 474.837 484.495 472.67 484.588Z"/>
	<path fill="#17415B" d="M555.202 472.479C560.499 467.178 566.199 465.352 573.361 464.139C575.687 463.959 578.01 463.804 580.345 463.799C587.973 463.783 595.01 465.46 600.51 471.139C603.969 474.71 606.236 479.23 607.46 484.018C610.388 495.466 608.963 525.848 608.941 539.044C607.153 542.381 605.008 544.953 601.975 547.231C594.821 552.606 585.206 554.499 576.436 553.249C568.173 552.071 561.677 548.005 556.727 541.338C552.9 535.986 551.122 529.141 551.047 522.613C550.962 515.186 553.26 507.757 558.663 502.45C566.911 494.347 580.499 495.943 591.131 496.033C590.977 493.313 590.527 490.736 590.02 488.065C589.684 487.622 589.337 487.187 588.972 486.767C586.433 483.846 582.927 482.508 579.103 482.378C571.46 482.117 565.581 485.704 560.206 490.678C557.746 485.007 556.139 478.574 555.202 472.479ZM582.443 513.231C577.877 513.338 574.329 513.241 570.971 516.863Q570.63 517.231 570.328 517.631Q570.025 518.031 569.764 518.459Q569.502 518.887 569.284 519.339Q569.066 519.791 568.894 520.262Q568.721 520.733 568.596 521.219Q568.471 521.705 568.395 522.2Q568.319 522.696 568.292 523.197Q568.264 523.698 568.287 524.199C568.43 527.22 569.943 529.841 572.201 531.8C573.829 533.214 575.633 533.815 577.679 534.375C582.536 534.639 586.067 533.895 590.475 531.732Q590.575 522.511 590.571 513.289C587.866 513.263 585.147 513.185 582.443 513.231Z"/>
	<path fill="#17415B" d="M931.722 540.709Q931.193 541.496 930.617 542.25C925.363 549.099 918.336 554.167 909.528 555.071C901.08 555.937 892.568 552.988 886.036 547.679C876.312 539.776 871.445 527.22 870.32 515.004C869.021 500.9 872.118 487.222 881.36 476.251C887.394 469.087 894.394 464.98 903.81 464.202C903.949 464.198 904.088 464.192 904.227 464.19C910.708 464.073 916.683 466.218 921.394 470.739C933.693 482.543 934.612 501.705 935.013 517.631C919.532 517.944 904.113 517.744 888.636 517.648C889.495 522.416 891.355 527.138 894.45 530.915C905.74 544.694 919.923 528.292 921.807 528.776C924.372 529.435 926.793 533.691 928.306 535.735L931.722 540.709ZM902.185 483.004C896.946 485.201 893.415 488.242 891.144 493.583C890.195 495.815 889.665 498.224 889.087 500.572L903.904 500.558C908.261 500.578 912.648 500.711 917.002 500.585C915.655 494.757 914.079 487.727 908.596 484.35C906.472 483.041 904.617 482.955 902.185 483.004Z"/>
	<path fill="#17415B" d="M771.024 474.88C775.559 468.725 782.459 466.021 789.68 464.606C791.37 464.48 793.069 464.354 794.764 464.378C801.749 464.478 808.656 467.12 813.536 472.209C818.519 477.404 821.021 485.023 822.217 491.994C823.468 499.286 823.006 506.983 823.001 514.368Q823.026 529.76 822.875 545.151C821.508 546.815 820.139 548.283 818.389 549.557C810.671 555.176 799.16 556.314 789.942 554.843C781.003 553.416 775.134 548.608 770.048 541.488C766.567 535.08 764.993 527.908 766.392 520.665C767.283 516.054 769.553 511.972 772.802 508.601C785.77 495.15 799.53 503.436 805.195 499.627C805.676 496.819 805.475 493.62 804.481 490.936C803.406 488.03 801.374 485.986 798.508 484.815C791.857 482.095 784.439 484.889 778.867 488.769C777.154 489.962 775.638 491.492 773.701 492.308L772.909 491.807C770.329 487.201 770.978 480.029 771.024 474.88ZM790.374 517.158C787.362 518.282 784.864 520.032 783.418 523.013C782.477 524.952 782.686 527.333 783.481 529.28C784.737 532.356 787.446 534.571 790.543 535.653C793.122 536.553 796.06 536.533 798.76 536.477C801.019 536.22 803.253 535.996 805.471 535.475L805.502 517.122C800.48 517.082 795.387 516.862 790.374 517.158Z"/>
	<path fill="#FEFEFE" d="M889.087 500.572C889.665 498.224 890.195 495.815 891.144 493.583C893.415 488.242 896.946 485.201 902.185 483.004C904.617 482.955 906.472 483.041 908.596 484.35C914.079 487.727 915.655 494.757 917.002 500.585C912.648 500.711 908.261 500.578 903.904 500.558L889.087 500.572Z"/>
	<path fill="#FEFEFE" d="M477.974 533.368C475.147 533.589 472.695 533.477 470.052 532.317C465.471 530.307 462.432 526.123 460.675 521.567C457.547 513.459 457.495 502.604 461.23 494.69C463.711 489.433 467.358 486.57 472.67 484.588C474.837 484.495 476.92 484.537 479.007 485.204C483.704 486.704 486.994 490.328 489.023 494.713C492.766 502.804 492.974 513.166 489.769 521.463C487.439 527.496 483.784 530.907 477.974 533.368Z"/>
	<path fill="#FEFEFE" d="M645.137 518.485C642.96 519.242 640.937 519.73 638.632 519.217C635.768 518.58 633.567 516.702 632.12 514.192C628.944 508.681 629.03 500.303 630.843 494.295C632.183 489.853 633.988 487.339 638.023 485.083C639.579 484.983 641.231 484.828 642.771 485.122C646.446 485.823 649.679 488.307 651.658 491.428C654.469 495.861 655.337 501.568 654.102 506.655C652.8 512.023 649.793 515.682 645.137 518.485Z"/>
	<path fill="#FEFEFE" d="M247.451 558.467C246.544 558.528 238.042 554.239 235.881 553.663C232.676 547.059 221.441 521.261 223.417 515.482C224.094 513.5 227.504 512.301 229.328 511.592C233.232 510.074 237.312 508.98 241.272 507.615L275.533 495.882C282.938 493.426 290.738 489.924 298.291 488.185C299.877 487.82 301.017 487.784 302.562 488.275C305.315 491.36 347.422 612.641 351.168 624.486C351.863 626.685 353.028 629.908 352.881 632.219C352.745 634.35 351.785 636.486 350.129 637.861C348.73 639.022 346.956 639.81 345.266 640.449C334.386 644.566 322.752 647.45 311.636 650.929L290.828 657.362C287.323 658.46 283.784 659.902 280.213 660.739C278.369 661.172 276.304 661.46 274.409 661.283C272.49 661.104 271.316 660.604 270.195 659.025C265.924 653.008 264.04 643.886 261.614 636.849C256.114 620.895 251.14 604.497 244.633 588.932C248.223 585.776 251.224 582.897 253.483 578.639C256.641 579.772 260.133 579.814 263.215 578.354C266.362 576.864 268.535 573.919 269.571 570.65C270.862 566.577 270.558 561.943 268.546 558.151C266.951 555.143 264.273 552.89 260.957 552.043C257.799 551.237 253.682 551.534 250.873 553.279C248.759 554.591 247.994 556.112 247.451 558.467ZM259.454 525.498C257.678 521.553 254.963 518.04 250.754 516.526C247.986 515.53 244.353 515.806 241.706 517.049C238.828 518.401 236.865 520.991 235.89 523.971Q235.659 524.688 235.499 525.424Q235.339 526.16 235.252 526.908Q235.165 527.656 235.151 528.41Q235.137 529.163 235.197 529.914Q235.257 530.664 235.39 531.406Q235.523 532.147 235.727 532.872Q235.932 533.597 236.207 534.298Q236.481 535 236.823 535.671C238.447 538.848 241.078 541.292 244.535 542.301C246.856 542.978 248.852 542.894 251.165 542.332C251.278 542.317 251.393 542.315 251.502 542.285C254.398 541.497 257.242 539.397 258.668 536.747C260.769 532.842 260.602 529.642 259.454 525.498ZM279.253 588.327C276.34 585.95 273.269 584.045 269.345 584.378C265.872 584.673 262.837 586.723 260.749 589.439C258.152 592.818 256.963 597.252 257.734 601.462C258.352 604.838 260.168 607.9 263.063 609.796C266.117 611.796 270.633 612.587 274.18 611.702C277.568 610.857 280.22 608.23 281.791 605.183C282.245 604.303 282.588 603.357 282.922 602.426C283.112 601.539 283.302 600.639 283.385 599.734C283.796 595.232 282.038 591.702 279.253 588.327ZM284.59 620.624C280.691 620.157 277.13 620.357 273.93 622.902C272.948 623.682 271.913 624.799 271.232 625.857Q270.868 626.441 270.563 627.059Q270.259 627.677 270.018 628.322Q269.777 628.967 269.601 629.633Q269.425 630.299 269.317 630.979Q269.209 631.659 269.169 632.347Q269.129 633.035 269.158 633.723Q269.187 634.411 269.285 635.093Q269.382 635.774 269.547 636.443C270.498 640.408 273.333 644.757 276.92 646.801Q277.4 647.076 277.906 647.3Q278.412 647.524 278.938 647.695Q279.464 647.867 280.005 647.983Q280.546 648.099 281.096 648.159Q281.646 648.22 282.199 648.223Q282.752 648.226 283.303 648.173Q283.853 648.12 284.396 648.01Q284.938 647.901 285.466 647.736C289.013 646.669 291.852 643.949 293.428 640.638Q293.739 639.985 293.984 639.304Q294.228 638.623 294.403 637.921Q294.578 637.219 294.682 636.503Q294.786 635.787 294.818 635.065Q294.849 634.342 294.809 633.62Q294.768 632.897 294.655 632.183Q294.542 631.468 294.358 630.768Q294.174 630.069 293.921 629.391C292.246 624.995 288.769 622.412 284.59 620.624ZM300.117 511.416C296.704 512.793 286.287 516.063 284.361 518.428C284.095 519.617 283.941 520.243 284.67 521.369C285.35 522.42 286.29 522.737 287.449 522.913C291.527 521.467 300.35 519.416 302.997 516.079C303.17 514.832 303.29 513.819 302.446 512.745C301.649 511.731 301.302 511.572 300.117 511.416ZM270.07 514.916C267.934 516.49 265.821 518.141 265.604 521.011C265.498 522.422 265.721 523.426 266.63 524.527C267.849 526.005 270.071 526.54 271.891 526.59C273.891 525.674 275.401 524.967 276.269 522.802C276.869 521.306 276.87 519.739 276.161 518.286C275.463 516.856 273.981 515.634 272.443 515.215C271.684 515.008 270.853 514.965 270.07 514.916ZM311.052 545.97C307.861 547.315 298.975 549.813 297.474 552.545C297.055 553.307 297.096 553.974 297.13 554.806C297.849 556.047 297.982 556.159 299.255 556.826L301.236 556.663C305.53 555.229 313.198 553.574 315.527 549.504C315.45 548.131 315.348 547.695 314.28 546.674C313.364 545.798 312.207 545.939 311.052 545.97ZM281.503 549.436C279.64 550.715 278.249 551.83 277.741 554.132C277.439 555.504 277.519 557.142 278.214 558.388C278.915 559.646 280.306 560.601 281.712 560.877C282.672 561.065 283.727 560.868 284.684 560.724C286.845 559.348 288.415 558.147 288.927 555.508C289.193 554.132 288.969 552.767 288.152 551.611C287.211 550.279 285.629 549.46 284.013 549.354C283.182 549.299 282.332 549.371 281.503 549.436ZM322.921 579.995C319.503 581.26 311.169 583.307 309.24 586.681C308.947 587.192 308.887 587.647 308.769 588.198C309.342 589.22 310.257 589.682 311.461 589.869C311.758 589.915 312.06 589.901 312.36 589.916C316.55 588.76 322.769 587.835 325.89 584.709C326.329 583.489 326.612 582.948 326.08 581.656C325.652 580.616 324.624 580.006 323.543 579.941C323.335 579.928 323.128 579.977 322.921 579.995ZM292.94 583.509C291.024 585.165 289.562 586.581 289.365 589.233C289.255 590.719 289.686 592.257 290.807 593.292C292.444 594.804 294.27 594.934 296.367 594.677C296.513 594.66 296.658 594.638 296.803 594.619C298.693 593.212 300.227 591.881 300.647 589.445C300.888 588.045 300.544 586.706 299.685 585.591C298.702 584.316 297.127 583.509 295.523 583.418C294.667 583.369 293.793 583.444 292.94 583.509ZM336.132 613.946C330.831 615.744 321.764 617.693 318.382 622.375C318.434 623.794 318.634 623.836 319.699 624.777C320.334 625.338 320.156 625.158 321.117 625.553C325.176 624.149 337.517 621.01 339.097 617.202C339.297 616.721 339.185 616.672 339.083 616.093C338.097 615.166 337.389 614.5 336.132 613.946ZM304.507 618.951C302.423 620.313 301.059 621.398 300.524 623.929C300.2 625.458 300.261 627.381 301.258 628.675C302.114 629.786 303.115 630.509 304.507 630.783C305.339 630.947 306.388 630.777 307.221 630.697C309.126 629.661 310.465 628.707 311.124 626.55C311.593 625.015 311.46 623.417 310.65 622.017C309.819 620.581 308.383 619.49 306.749 619.151C306.016 618.998 305.25 618.986 304.507 618.951Z"/>
	<path fill="#17415B" d="M287.449 522.913C286.29 522.737 285.35 522.42 284.67 521.369C283.941 520.243 284.095 519.617 284.361 518.428C286.287 516.063 296.704 512.793 300.117 511.416C301.302 511.572 301.649 511.731 302.446 512.745C303.29 513.819 303.17 514.832 302.997 516.079C300.35 519.416 291.527 521.467 287.449 522.913Z"/>
	<path fill="#FEFEFE" d="M577.679 534.375C575.633 533.815 573.829 533.214 572.201 531.8C569.943 529.841 568.43 527.22 568.287 524.199Q568.265 523.698 568.292 523.197Q568.319 522.696 568.395 522.2Q568.472 521.705 568.597 521.219Q568.721 520.733 568.894 520.262Q569.066 519.791 569.284 519.339Q569.502 518.887 569.764 518.459Q570.025 518.031 570.328 517.631Q570.63 517.231 570.971 516.863C574.329 513.241 577.877 513.338 582.443 513.231C585.147 513.185 587.866 513.263 590.571 513.289Q590.575 522.511 590.475 531.732C586.067 533.895 582.536 534.639 577.679 534.375Z"/>
	<path fill="#17415B" d="M271.891 526.59C270.071 526.54 267.849 526.005 266.63 524.527C265.721 523.426 265.498 522.422 265.604 521.011C265.821 518.141 267.934 516.49 270.07 514.916C270.853 514.965 271.684 515.008 272.443 515.215C273.981 515.634 275.463 516.856 276.161 518.286C276.87 519.739 276.869 521.306 276.269 522.802C275.401 524.967 273.891 525.674 271.891 526.59Z"/>
	<path fill="#272F3B" d="M252.048 520.223C249.656 518.808 247.47 518.133 244.686 518.779C242.357 519.319 240.496 520.912 239.295 522.943C237.776 525.508 237.277 528.84 238.015 531.732C238.35 533.042 238.88 534.381 239.611 535.519C241.703 538.297 243.417 539.518 246.933 539.995Q248.177 540.155 249.428 540.256L248.994 541.028C247.168 541.181 245.823 540.927 244.036 540.549C243.102 540.351 243.496 540.382 242.573 540.471L242.989 542.066L243.537 540.565C243.667 540.637 243.791 540.718 243.926 540.781C245.625 541.577 247.736 541.794 249.59 541.954C250.157 542.003 250.634 542.133 251.165 542.332C248.852 542.894 246.856 542.978 244.535 542.301C241.078 541.292 238.447 538.848 236.823 535.671Q236.481 535 236.207 534.298Q235.932 533.597 235.727 532.872Q235.523 532.147 235.39 531.406Q235.257 530.664 235.197 529.913Q235.137 529.163 235.151 528.41Q235.165 527.656 235.252 526.908Q235.339 526.16 235.499 525.424Q235.659 524.688 235.89 523.971C236.865 520.991 238.828 518.401 241.706 517.049C244.353 515.806 247.986 515.53 250.754 516.526C254.963 518.04 257.678 521.553 259.454 525.498C258.703 526.044 258.023 526.563 257.376 527.23C255.964 524.144 254.926 522.114 252.048 520.223Z"/>
	<path fill="#FEFEFE" d="M798.76 536.477C796.06 536.533 793.122 536.553 790.543 535.653C787.446 534.571 784.737 532.356 783.481 529.28C782.686 527.333 782.477 524.952 783.418 523.013C784.864 520.032 787.362 518.282 790.374 517.158C795.387 516.862 800.48 517.082 805.502 517.122L805.471 535.475C803.253 535.996 801.019 536.22 798.76 536.477Z"/>
	<path fill="#FEA7A7" d="M239.611 535.519C238.88 534.381 238.35 533.042 238.015 531.732C237.277 528.84 237.776 525.508 239.295 522.943C240.496 520.912 242.357 519.319 244.686 518.779C247.47 518.133 249.656 518.808 252.048 520.223C254.926 522.114 255.964 524.144 257.376 527.23C257.476 530.973 257.102 534.386 254.338 537.167C252.956 538.558 251.206 539.485 249.428 540.256Q248.177 540.155 246.933 539.995C243.417 539.518 241.703 538.297 239.611 535.519ZM244.761 533.9C244.743 534.531 244.701 534.126 245.2 535.041C245.986 535.074 246.181 535.192 246.864 534.863C248.716 533.974 250.736 530.894 251.288 528.948C252.303 525.363 249.394 526.665 248.096 524.484C248.766 523.467 248.599 523.994 248.703 522.938L247.044 522.139L244.976 523.17C244.332 528.133 250.068 528.218 244.761 533.9Z"/>
	<path fill="#272F3B" d="M247.044 522.139L248.703 522.938C248.599 523.994 248.766 523.467 248.096 524.484C249.394 526.665 252.303 525.363 251.288 528.948C250.736 530.894 248.716 533.974 246.864 534.863C246.181 535.192 245.986 535.074 245.2 535.041C244.701 534.126 244.743 534.531 244.761 533.9C250.068 528.218 244.332 528.133 244.976 523.17L247.044 522.139Z"/>
	<path fill="#17415B" d="M123.715 544.707C122.033 542.061 121.621 538.051 121.867 534.963C122.225 530.466 123.861 526.826 127.226 523.844C127.718 524.269 127.498 523.977 127.712 524.828C125.502 531.114 124.102 538.056 123.715 544.707Z"/>
	<path fill="#17415B" d="M259.454 525.498C260.602 529.642 260.769 532.842 258.668 536.747C257.242 539.397 254.398 541.497 251.502 542.285C251.393 542.315 251.278 542.317 251.165 542.332C250.634 542.133 250.157 542.003 249.59 541.954C247.736 541.794 245.625 541.577 243.926 540.781C243.791 540.718 243.667 540.637 243.537 540.565L242.989 542.066L242.573 540.471C243.496 540.382 243.102 540.351 244.036 540.549C245.823 540.927 247.168 541.181 248.994 541.028L249.428 540.256C251.206 539.485 252.956 538.558 254.338 537.167C257.102 534.386 257.476 530.973 257.376 527.23C258.023 526.563 258.703 526.044 259.454 525.498Z"/>
	<path fill="#FEFEFE" d="M337.403 552.701C335.5 551.336 332.457 540.096 331.757 537.329C332.382 537.828 332.907 538.374 333.423 538.987C336.772 542.962 337.743 547.653 337.403 552.701Z"/>
	<path fill="#17415B" d="M111.35 561.17C110.326 559.167 109.996 556.832 109.85 554.612C109.501 549.321 110.606 544.386 114.146 540.348L114.438 540.626C114.895 542.306 113.777 545.145 113.3 546.862C111.993 551.566 112.862 556.691 111.35 561.17Z"/>
	<path fill="#17415B" d="M133.388 563.27C131.082 560.113 130.291 556.778 130.664 552.873C131.075 548.571 132.741 545.528 136.015 542.817L136.666 543.338C135.368 546.512 133.869 550.383 133.506 553.781C133.281 555.89 134.331 561.902 133.388 563.27Z"/>
	<path fill="#17415B" d="M301.236 556.663L299.255 556.826C297.982 556.159 297.849 556.047 297.13 554.806C297.096 553.974 297.055 553.307 297.474 552.545C298.975 549.813 307.861 547.315 311.052 545.97C312.207 545.939 313.364 545.798 314.28 546.674C315.348 547.695 315.45 548.131 315.527 549.504C313.198 553.574 305.53 555.229 301.236 556.663Z"/>
	<path fill="#17415B" d="M284.684 560.724C283.727 560.868 282.672 561.065 281.712 560.877C280.306 560.601 278.915 559.646 278.214 558.388C277.519 557.142 277.439 555.504 277.741 554.132C278.249 551.83 279.64 550.715 281.503 549.436C282.332 549.371 283.182 549.299 284.013 549.354C285.629 549.46 287.211 550.279 288.152 551.611C288.969 552.767 289.193 554.132 288.927 555.508C288.415 558.147 286.845 559.348 284.684 560.724Z"/>
	<path fill="#17415B" d="M250.425 557.375L249.613 556.467C248.929 557.149 248.81 557.652 248.485 558.544L247.451 558.467C247.994 556.112 248.759 554.591 250.873 553.279C253.682 551.534 257.799 551.237 260.957 552.043C264.273 552.89 266.951 555.143 268.546 558.151C270.558 561.943 270.862 566.577 269.571 570.65C268.535 573.919 266.362 576.864 263.215 578.354C260.133 579.814 256.641 579.772 253.483 578.639C253.919 577.694 254.228 576.688 254.572 575.706C255.516 576.107 256.289 576.409 257.33 576.402Q257.815 576.394 258.297 576.337Q258.779 576.28 259.253 576.174Q259.727 576.068 260.188 575.916Q260.648 575.763 261.091 575.564Q261.534 575.365 261.954 575.123Q262.375 574.88 262.768 574.596Q263.162 574.312 263.525 573.99Q263.888 573.668 264.217 573.311C266.523 570.767 267.516 567.229 267.223 563.843C266.968 560.894 265.658 557.923 263.319 556.044C261.324 554.442 258.408 553.633 255.871 554.007C253.678 554.33 252.282 555.555 250.937 557.214L250.425 557.375Z"/>
	<path fill="#FEA7A7" d="M250.937 557.214C252.282 555.555 253.678 554.33 255.871 554.007C258.408 553.633 261.324 554.442 263.319 556.044C265.658 557.923 266.968 560.894 267.223 563.843C267.516 567.229 266.523 570.767 264.217 573.311Q263.888 573.668 263.525 573.99Q263.162 574.312 262.768 574.596Q262.375 574.88 261.954 575.123Q261.534 575.365 261.091 575.564Q260.648 575.763 260.188 575.916Q259.727 576.068 259.253 576.174Q258.779 576.28 258.297 576.337Q257.815 576.394 257.33 576.402C256.289 576.409 255.516 576.107 254.572 575.706C255.144 573.605 256.354 570.855 255.38 568.768C253.281 567.539 252.494 566.914 251.849 564.499C251.808 564.346 251.77 564.193 251.731 564.04C251.933 563.918 252.129 563.786 252.336 563.674C253.737 562.914 256.209 563.096 257.669 563.624C258.654 563.98 258.374 563.706 258.741 564.489C257.819 564.684 256.898 564.853 255.969 565.009L255.974 565.522C257.746 566.017 259.646 565.683 261.457 565.52L261.919 564.541C261.613 563.41 261.031 562.659 260.186 561.874C258.056 559.896 253.923 557.148 250.937 557.214Z"/>
	<path fill="#FF9594" d="M250.425 557.375L250.937 557.214C253.923 557.148 258.056 559.896 260.186 561.874C261.031 562.659 261.613 563.41 261.919 564.541L261.457 565.52C259.646 565.683 257.746 566.017 255.974 565.522L255.969 565.009C256.898 564.853 257.819 564.684 258.741 564.489C258.374 563.706 258.654 563.98 257.669 563.624C256.209 563.096 253.737 562.914 252.336 563.674C252.129 563.786 251.933 563.918 251.731 564.04C250.887 562.625 250.756 561.171 250.106 559.728C249.99 559.469 249.828 559.234 249.689 558.988L250.425 557.375Z"/>
	<path fill="#17415B" d="M119.408 578.601C118.655 577.101 117.995 575.532 117.688 573.875C116.576 567.883 117.78 562.844 121.251 557.897C121.588 558.245 121.621 558.229 121.711 559.002C122.063 562.023 120.571 566.891 120.196 570.055C119.872 572.788 119.862 575.495 119.89 578.244L119.408 578.601Z"/>
	<path fill="#17415B" d="M127.093 595.319C126.157 593.004 125.431 590.584 125.196 588.091C124.741 583.266 126.347 579.072 129.434 575.409L129.673 575.659C130.584 578.095 128.537 584.425 128.225 587.254C127.933 589.908 128.131 592.554 127.847 595.218L127.093 595.319Z"/>
	<path fill="#17415B" d="M108.733 599.11L108.176 598.447C106.983 591.598 106.924 584.994 110.4 578.74L111.031 579.038C111.879 582.732 109.582 594.791 108.733 599.11Z"/>
	<path fill="#17415B" d="M312.36 589.916C312.06 589.901 311.758 589.915 311.461 589.869C310.257 589.682 309.342 589.22 308.769 588.198C308.887 587.647 308.947 587.192 309.24 586.681C311.169 583.307 319.503 581.26 322.921 579.995C323.128 579.977 323.335 579.928 323.543 579.941C324.624 580.006 325.652 580.616 326.08 581.656C326.612 582.948 326.329 583.489 325.89 584.709C322.769 587.835 316.55 588.76 312.36 589.916Z"/>
	<path fill="#17415B" d="M296.803 594.619C296.658 594.638 296.513 594.66 296.367 594.677C294.27 594.934 292.444 594.804 290.807 593.292C289.686 592.257 289.255 590.719 289.365 589.233C289.562 586.581 291.024 585.165 292.94 583.509C293.793 583.444 294.667 583.369 295.523 583.418C297.127 583.509 298.702 584.316 299.685 585.591C300.544 586.706 300.888 588.045 300.647 589.445C300.227 591.881 298.693 593.212 296.803 594.619Z"/>
	<path fill="#272F3B" d="M279.253 588.327C278.573 588.587 277.783 588.805 277.151 589.157C273.819 587.678 270.511 586.749 266.938 588.055C264.103 589.091 262.054 591.349 260.935 594.112C259.806 596.901 259.738 600.137 260.945 602.915Q261.146 603.375 261.392 603.812Q261.638 604.25 261.926 604.66Q262.215 605.071 262.543 605.451Q262.871 605.83 263.236 606.175Q263.6 606.52 263.998 606.826Q264.395 607.133 264.821 607.398Q265.247 607.664 265.697 607.885Q266.148 608.106 266.618 608.281C269.218 609.276 272.774 609.656 275.315 608.313C277.961 606.915 279.751 603.774 280.507 600.975C281.971 601.338 282.156 601.159 282.922 602.426C282.588 603.357 282.245 604.303 281.791 605.183C280.22 608.23 277.568 610.857 274.18 611.702C270.633 612.587 266.117 611.796 263.063 609.796C260.168 607.9 258.352 604.838 257.734 601.462C256.963 597.252 258.152 592.818 260.749 589.439C262.837 586.723 265.872 584.673 269.345 584.378C273.269 584.045 276.34 585.95 279.253 588.327Z"/>
	<path fill="#FEA7A7" d="M280.507 600.975C279.751 603.774 277.961 606.915 275.315 608.313C272.774 609.656 269.218 609.276 266.618 608.281Q266.148 608.106 265.697 607.885Q265.247 607.664 264.821 607.398Q264.395 607.133 263.998 606.826Q263.6 606.52 263.236 606.175Q262.871 605.83 262.543 605.451Q262.215 605.071 261.926 604.66Q261.638 604.25 261.392 603.812Q261.146 603.375 260.945 602.915C259.738 600.137 259.806 596.901 260.935 594.112C262.054 591.349 264.103 589.091 266.938 588.055C270.511 586.749 273.819 587.678 277.151 589.157C276.947 589.271 276.745 589.389 276.538 589.499C273.634 591.044 268.137 590.683 266.213 593.237C266.405 596.016 268.55 597.557 270.115 599.647C268.342 600.209 266.677 600.594 265.255 601.837C266.812 602.16 269.389 601.004 270.449 601.767C270.048 602.85 269.621 603.898 269.141 604.948L269.488 605.492C270.96 605.186 271.814 604.532 272.599 603.222C273.125 602.343 273.628 601.367 273.313 600.336C272.793 598.632 271.404 596.675 270.546 595.085C272.676 593.247 274.433 591.497 277.352 591.353C278.697 591.94 279.462 592.43 280.001 593.856C280.807 595.986 280.716 598.728 280.507 600.975Z"/>
	<path fill="#272F3B" d="M277.151 589.157C277.783 588.805 278.573 588.587 279.253 588.327C282.038 591.702 283.796 595.232 283.385 599.734C283.302 600.639 283.112 601.539 282.922 602.426C282.156 601.159 281.971 601.338 280.507 600.975C280.716 598.728 280.807 595.986 280.001 593.856C279.462 592.43 278.697 591.94 277.352 591.353C274.433 591.497 272.676 593.247 270.546 595.085C271.404 596.675 272.793 598.632 273.313 600.336C273.628 601.367 273.125 602.343 272.599 603.222C271.814 604.532 270.96 605.186 269.488 605.492L269.141 604.948C269.621 603.898 270.048 602.85 270.449 601.767C269.389 601.004 266.812 602.16 265.255 601.837C266.677 600.594 268.342 600.209 270.115 599.647C268.55 597.557 266.405 596.016 266.213 593.237C268.137 590.683 273.634 591.044 276.538 589.499C276.745 589.389 276.947 589.271 277.151 589.157Z"/>
	<path fill="#17415B" d="M134.988 612.186C134.261 609.849 133.7 607.252 133.61 604.795C133.464 600.831 134.633 597.264 137.324 594.339C138.058 597.357 136.153 608.198 135.694 611.945L134.988 612.186Z"/>
	<path fill="#B5F7FB" d="M202.071 603.023C213.914 602.762 224.976 599.507 236.065 595.582C240.745 610.394 246.231 624.952 251.273 639.644C253.686 646.671 256.582 658.094 260.064 664.274C261.552 666.917 264.126 669.203 266.779 670.633Q267.801 671.178 268.884 671.587Q269.967 671.997 271.093 672.264Q272.22 672.532 273.371 672.653Q274.523 672.775 275.68 672.748C284.091 672.546 302.167 665.65 311.178 663.19C301.434 686.708 284.602 704.302 260.943 714.099C249.856 718.69 219.939 727.211 208.52 723.869C204.03 717.308 199.979 710.726 197.091 703.278C188.701 681.645 187.684 653.032 192.695 630.409C194.8 620.903 198.173 611.915 202.071 603.023Z"/>
	<path fill="#17415B" d="M116.391 617.58C115.902 616.391 115.44 615.196 115.125 613.947C113.722 608.374 114.213 602.321 117.267 597.389C117.669 597.792 117.642 597.658 117.768 598.267C118.129 600.019 117.017 616.713 116.391 617.58Z"/>
	<path fill="#17415B" d="M125.204 634.846C123.653 631.965 122.805 629.013 122.435 625.775C121.912 621.182 122.682 616.946 125.558 613.284C126.363 614.801 125.259 630.807 125.735 634.569L125.822 635.211L125.204 634.846Z"/>
	<path fill="#17415B" d="M321.117 625.553C320.156 625.158 320.334 625.338 319.699 624.777C318.634 623.836 318.434 623.794 318.382 622.375C321.764 617.693 330.831 615.744 336.132 613.946C337.389 614.5 338.097 615.166 339.083 616.093C339.185 616.672 339.297 616.721 339.097 617.202C337.517 621.01 325.176 624.149 321.117 625.553Z"/>
	<path fill="#17415B" d="M307.221 630.697C306.388 630.777 305.339 630.947 304.507 630.783C303.115 630.509 302.114 629.786 301.258 628.675C300.261 627.381 300.2 625.458 300.524 623.929C301.059 621.398 302.423 620.313 304.507 618.951C305.25 618.986 306.016 618.998 306.749 619.151C308.383 619.49 309.819 620.581 310.65 622.017C311.46 623.417 311.593 625.015 311.124 626.55C310.465 628.707 309.126 629.661 307.221 630.697Z"/>
	<path fill="#17415B" d="M110.134 642.649Q109.562 641.232 109.072 639.785C106.93 633.366 106.623 626.522 109.71 620.348C111.241 626.349 110.674 636.427 110.134 642.649Z"/>
	<path fill="#272F3B" d="M271.232 625.857C271.913 624.799 272.948 623.682 273.93 622.902C277.13 620.357 280.691 620.157 284.59 620.624C284.648 621.604 284.602 622.729 284.827 623.678C281.744 623.003 278.857 622.668 276.105 624.531C274.955 625.309 274.093 626.209 273.222 627.278L271.232 625.857Z"/>
	<path fill="#17415B" d="M284.59 620.624C288.769 622.412 292.246 624.995 293.921 629.391Q294.174 630.069 294.358 630.768Q294.542 631.468 294.655 632.183Q294.768 632.897 294.809 633.62Q294.849 634.342 294.818 635.065Q294.786 635.787 294.682 636.503Q294.578 637.219 294.403 637.921Q294.228 638.623 293.984 639.304Q293.739 639.985 293.428 640.638C291.852 643.949 289.013 646.669 285.466 647.736Q284.938 647.901 284.396 648.01Q283.853 648.12 283.303 648.173Q282.752 648.226 282.199 648.223Q281.646 648.22 281.096 648.159Q280.546 648.099 280.005 647.983Q279.464 647.867 278.938 647.696Q278.412 647.524 277.906 647.3Q277.4 647.076 276.92 646.801C273.333 644.757 270.498 640.408 269.547 636.443Q269.382 635.774 269.285 635.093Q269.187 634.411 269.158 633.723Q269.129 633.035 269.169 632.347Q269.209 631.659 269.317 630.979Q269.425 630.299 269.601 629.633Q269.777 628.967 270.018 628.322Q270.259 627.677 270.563 627.059Q270.868 626.441 271.232 625.857L273.222 627.278C272.379 629.358 272.021 631.014 271.943 633.252C272.606 635.747 273.273 638.696 274.999 640.686C275.591 641.36 276.194 642.048 276.871 642.638C278.749 644.272 281.351 645.32 283.861 644.964C286.376 644.606 288.486 643.056 289.851 640.951C291.647 638.185 292.121 634.596 291.281 631.422C290.295 627.695 288.031 625.588 284.827 623.678C284.602 622.729 284.648 621.604 284.59 620.624Z"/>
	<path fill="#FEA7A7" d="M273.222 627.278C274.093 626.209 274.955 625.309 276.105 624.531C278.857 622.668 281.744 623.003 284.827 623.678C288.031 625.588 290.295 627.695 291.281 631.422C292.121 634.596 291.647 638.185 289.851 640.951C288.486 643.056 286.376 644.606 283.861 644.964C281.351 645.32 278.749 644.272 276.871 642.638C276.194 642.048 275.591 641.36 274.999 640.686L276.713 638.954C277.54 638.138 278.285 637.59 279.293 637.013C280.633 637.781 279.671 639.572 280.749 640.949L281.91 640.751C283.08 639.161 282.704 636.882 283.071 634.987L284.685 634.025C284.302 633.011 282.736 632.47 281.789 631.927C282.777 629.789 283.898 627.874 283.802 625.46L283.213 625.178C282.165 625.867 281.721 626.321 281.101 627.426C280.739 628.07 280.508 628.555 279.97 629.082C279.863 629.187 279.738 629.273 279.623 629.369C276.072 629.155 274.626 631.551 271.943 633.252C272.021 631.014 272.379 629.358 273.222 627.278Z"/>
	<path fill="#272F3B" d="M279.623 629.369C279.738 629.273 279.863 629.187 279.97 629.082C280.508 628.555 280.739 628.07 281.101 627.426C281.721 626.321 282.165 625.867 283.213 625.178L283.802 625.46C283.898 627.874 282.777 629.789 281.789 631.927C282.736 632.47 284.302 633.011 284.685 634.025L283.071 634.987C282.704 636.882 283.08 639.161 281.91 640.751L280.749 640.949C279.671 639.572 280.633 637.781 279.293 637.013C278.285 637.59 277.54 638.138 276.713 638.954C276.757 638.074 276.629 638.256 276.979 637.648C277.962 635.94 279.148 634.165 279.182 632.131C279.195 631.318 279.181 630.968 279.39 630.199L279.623 629.369Z"/>
	<path fill="#17415B" d="M134.881 651.43C132.552 643.607 131.321 634.889 135.16 627.321L135.579 627.703C136.197 629.359 135.667 647.855 135.503 651.516L134.881 651.43Z"/>
	<path fill="#FF9594" d="M271.943 633.252C274.626 631.551 276.072 629.155 279.623 629.369L279.39 630.199C279.181 630.968 279.195 631.318 279.182 632.131C279.148 634.165 277.962 635.94 276.979 637.648C276.629 638.256 276.757 638.074 276.713 638.954L274.999 640.686C273.273 638.696 272.606 635.747 271.943 633.252Z"/>
	<path fill="#17415B" d="M118.935 668.921C118.126 667.45 117.555 665.883 117.071 664.277C115.223 658.15 115.075 650.546 118.147 644.835C119.581 647.359 118.438 657.117 118.832 660.97C119.016 662.768 119.957 667.674 118.935 668.921Z"/>
	<path fill="#5ACED6" d="M268.606 721.049C279.664 716.836 288.148 711.484 297.253 704.031C300.576 705.084 306.548 706.916 308.173 710.29C308.626 711.232 308.511 712.198 307.885 713.024C304.662 717.279 287.702 719.094 282.069 719.879C277.603 720.421 273.09 720.691 268.606 721.049Z"/>
	<path fill="#5ACED6" d="M103.676 710.707C110.136 707.988 117.275 707.71 124.173 707.213C128.952 706.859 134.271 707.436 139.03 707.96C159.818 710.25 178.846 716.705 197.516 725.915C190.788 726.092 184.045 725.996 177.314 725.977C158.172 724.972 118.761 722.255 103.676 710.707Z"/>
</svg>
